<svg width="616" height="245" viewBox="0 0 616 245" fill="none" xmlns="http://www.w3.org/2000/svg">
<g clip-path="url(#clip0_116_363)">
<path d="M227.109 136.702L225.75 140.106H228.454L227.109 136.702Z" fill="white"/>
<path d="M235.215 101.464V91.5331C235.215 89.9521 234.476 89.2197 232.945 89.2197H230.449V103.778H232.945C234.479 103.778 235.215 103.045 235.215 101.464Z" fill="white"/>
<path d="M275.667 71H203.12C197.17 71 195 73.1735 195 79.0635V150.857C195 151.782 195.165 153.443 195.465 154.154C195.764 154.865 196.043 155.448 196.597 155.967C197.17 156.503 198.161 157.06 198.638 157.278L237.094 173.535C237.802 173.836 238.578 174.002 239.392 174.002C240.209 174.002 240.985 173.836 241.69 173.535L280.149 157.276C280.626 157.058 281.616 156.501 282.19 155.965C282.744 155.446 283.023 154.865 283.322 154.152C283.622 153.441 283.787 151.779 283.787 150.855V79.0635C283.787 73.1735 281.616 71 275.667 71ZM244.026 83.9177H250.098V123.413H244.026V83.9177ZM244.339 132.855H247.869V144.825H244.545V137.949L241.461 142.635H241.393L238.326 137.985V144.825H235.054V132.855H238.583L241.459 137.489L244.339 132.855ZM224.376 83.9177H233.91C238.847 83.9177 241.287 86.3424 241.287 91.2535V101.749C241.287 106.657 238.847 109.082 233.91 109.082H230.449V123.413H224.376V83.9177ZM207.824 83.9177H221.331V89.3905H213.897V100.564H221.045V106.036H213.897V117.942H221.444V123.415H207.824V83.9177ZM219.33 143.23C218.686 143.754 217.929 144.195 217.056 144.548C216.183 144.901 215.197 145.079 214.093 145.079C213.151 145.079 212.281 144.925 211.483 144.619C210.684 144.311 209.995 143.884 209.407 143.337C208.822 142.789 208.362 142.137 208.03 141.379C207.697 140.623 207.532 139.791 207.532 138.892V138.857C207.532 137.98 207.695 137.162 208.023 136.411C208.35 135.659 208.801 135.001 209.374 134.436C209.95 133.872 210.634 133.431 211.432 133.111C212.229 132.794 213.092 132.633 214.022 132.633C215.091 132.633 216.011 132.787 216.787 133.092C217.561 133.401 218.271 133.827 218.915 134.375L216.952 136.717C216.516 136.352 216.07 136.072 215.617 135.88C215.164 135.686 214.638 135.588 214.041 135.588C213.604 135.588 213.201 135.674 212.826 135.844C212.453 136.015 212.13 136.25 211.854 136.546C211.578 136.842 211.361 137.191 211.2 137.589C211.04 137.987 210.96 138.416 210.96 138.871V138.907C210.96 139.385 211.04 139.831 211.2 140.239C211.361 140.649 211.59 141 211.88 141.291C212.172 141.583 212.517 141.81 212.913 141.976C213.309 142.14 213.748 142.225 214.232 142.225C215.013 142.225 215.654 142.061 216.162 141.73V140.277H213.786V137.84H219.33V143.23ZM220.392 144.825L225.528 132.768H228.748L233.881 144.825H230.3L229.42 142.687H224.77L223.909 144.825H220.392ZM254.05 158.072C254.033 158.11 254.01 158.143 253.981 158.172C253.953 158.2 253.92 158.224 253.882 158.238L239.85 164.171C239.699 164.235 239.534 164.27 239.362 164.27C239.189 164.27 239.024 164.235 238.873 164.171L224.95 158.238C224.912 158.221 224.879 158.198 224.85 158.172C224.822 158.143 224.799 158.11 224.782 158.072C224.766 158.034 224.758 157.994 224.758 157.949C224.758 157.906 224.768 157.864 224.782 157.826C224.799 157.788 224.822 157.755 224.85 157.726C224.879 157.698 224.912 157.674 224.95 157.66C224.987 157.643 225.027 157.636 225.072 157.636H253.76C253.802 157.636 253.844 157.646 253.882 157.66C253.92 157.676 253.953 157.698 253.981 157.726C254.01 157.755 254.033 157.788 254.05 157.826C254.066 157.864 254.073 157.904 254.073 157.949C254.073 157.992 254.064 158.034 254.05 158.072ZM259.886 144.825H250.103V132.855H259.799V135.678H253.408V137.492H259.195V140.108H253.408V142.007H259.884V144.825H259.886ZM253.307 116.416V90.9122C253.307 86.0035 255.748 83.5764 260.684 83.5764H263.635C268.573 83.5764 270.955 85.9466 270.955 90.8553V98.9235H264.999V91.1942C264.999 89.6133 264.26 88.8809 262.729 88.8809H261.708C260.117 88.8809 259.381 89.6133 259.381 91.1942V116.134C259.381 117.715 260.12 118.447 261.708 118.447H262.842C264.373 118.447 265.112 117.715 265.112 116.134V107.219H271.071V116.416C271.071 121.324 268.632 123.751 263.694 123.751H260.686C255.748 123.751 253.307 121.327 253.307 116.416ZM271.3 141.142C271.3 141.758 271.182 142.306 270.946 142.784C270.71 143.263 270.38 143.671 269.955 144.007C269.531 144.344 269.021 144.6 268.422 144.778C267.825 144.955 267.16 145.043 266.424 145.043C265.343 145.043 264.319 144.88 263.35 144.548C262.38 144.216 261.521 143.721 260.776 143.059L262.635 140.853C263.84 141.81 265.142 142.289 266.544 142.289C266.992 142.289 267.334 142.218 267.568 142.076C267.804 141.933 267.922 141.732 267.922 141.469V141.433C267.922 141.308 267.891 141.196 267.834 141.101C267.778 141.004 267.672 140.912 267.516 140.819C267.36 140.727 267.153 140.639 266.898 140.554C266.638 140.469 266.306 140.381 265.89 140.288C265.246 140.139 264.649 139.978 264.1 139.803C263.55 139.625 263.069 139.397 262.661 139.118C262.253 138.838 261.932 138.489 261.696 138.075C261.46 137.66 261.342 137.141 261.342 136.527V136.491C261.342 135.934 261.448 135.42 261.66 134.951C261.873 134.481 262.184 134.078 262.59 133.737C262.996 133.396 263.489 133.13 264.062 132.941C264.638 132.754 265.286 132.659 266.008 132.659C267.042 132.659 267.964 132.791 268.773 133.062C269.582 133.33 270.314 133.725 270.97 134.252L269.299 136.593C268.75 136.205 268.183 135.913 267.603 135.712C267.023 135.512 266.464 135.411 265.926 135.411C265.525 135.411 265.22 135.486 265.022 135.633C264.822 135.78 264.72 135.965 264.72 136.181V136.216C264.72 136.354 264.751 136.472 264.815 136.574C264.878 136.676 264.987 136.771 265.142 136.856C265.298 136.942 265.511 137.029 265.779 137.112C266.048 137.198 266.39 137.285 266.803 137.378C267.492 137.527 268.115 137.7 268.672 137.899C269.229 138.098 269.7 138.343 270.094 138.625C270.484 138.909 270.783 139.253 270.988 139.66C271.196 140.066 271.3 140.547 271.3 141.106V141.142Z" fill="white"/>
<path d="M349.142 108.928C348.88 107.044 348.477 105.342 347.932 103.825C347.384 102.308 346.615 100.998 345.627 99.8978C344.376 98.433 342.812 97.1626 340.937 96.0889C339.061 95.0152 336.561 94.4795 333.435 94.4795H317.723V150.39H333.432C336.558 150.39 339.059 149.855 340.934 148.781C342.81 147.71 344.374 146.439 345.624 144.972C346.613 143.872 347.382 142.552 347.929 141.007C348.477 139.464 348.88 137.736 349.14 135.823C349.399 133.913 349.569 131.832 349.647 129.58C349.725 127.331 349.765 124.92 349.765 122.356C349.765 119.791 349.725 117.383 349.647 115.131C349.571 112.882 349.401 110.813 349.142 108.928ZM338.63 127.068C338.604 128.637 338.552 130.118 338.474 131.505C338.396 132.891 338.266 134.147 338.082 135.273C337.898 136.399 337.653 137.276 337.339 137.904C336.973 138.639 336.452 139.227 335.775 139.672C335.098 140.118 334.237 140.341 333.196 140.341H328.82V104.529H333.196C334.239 104.529 335.098 104.752 335.775 105.198C336.452 105.643 336.973 106.233 337.339 106.966C337.65 107.594 337.898 108.471 338.082 109.597C338.264 110.723 338.396 111.967 338.474 113.327C338.552 114.69 338.604 116.143 338.63 117.686C338.655 119.232 338.67 120.789 338.67 122.358C338.67 123.927 338.655 125.496 338.63 127.068Z" fill="white"/>
<path d="M354.988 150.39H380.623V140.338H366.086V126.989H378.592V116.937H366.086V104.529H380.623V94.4795H354.988V150.39Z" fill="white"/>
<path d="M407.809 94.4795L401.713 133.977L395.694 94.4795H383.5L395.928 150.39H407.495L420.001 94.4795H407.809Z" fill="white"/>
</g>
<defs>
<clipPath id="clip0_116_363">
<rect width="225" height="103" fill="white" transform="translate(195 71)"/>
</clipPath>
</defs>
</svg>
