<svg width="120" height="121" viewBox="0 0 120 121" fill="none" xmlns="http://www.w3.org/2000/svg">
<path d="M89.0318 51.7493C94.2527 69.163 84.3686 87.512 66.9548 92.733C49.5411 97.9539 31.1921 88.0697 25.9711 70.656C20.7502 53.2423 30.6343 34.8933 48.0481 29.6723C65.4618 24.4513 83.8108 34.3355 89.0318 51.7493Z" fill="#1371FF"/>
<path fill-rule="evenodd" clip-rule="evenodd" d="M65.1803 43.678C58.4896 51.0763 76.0428 53.1282 86.0043 54.2927C87.446 54.4612 88.7287 54.6112 89.7559 54.756C89.2476 52.2246 88.4313 49.7128 87.2892 47.2697C81.7012 35.3158 69.8498 28.2908 57.4726 28.277C54.3556 28.281 51.1866 28.7313 48.0479 29.6723C46.4091 30.1636 44.8369 30.7713 43.3378 31.4835C43.4887 32.3947 44.6385 33.1815 46.3679 32.9442C52.5358 32.0979 56.8583 32.4637 58.9503 32.8796C60.9722 33.2815 62.6948 34.2545 64.23 35.3521C66.858 37.2311 67.3473 41.2819 65.1803 43.678ZM24.5874 60.3121C24.8058 52.1918 28.045 44.482 33.5126 38.6542C44.7501 40.2565 55.6691 42.5139 48.7736 50.0935C41.8785 57.6728 53.9031 61.1305 63.1295 62.2296C66.0932 62.5827 68.4228 62.4897 70.2612 62.4163C73.1421 62.3013 74.8165 62.2344 75.8339 64.0079C76.5064 65.1803 75.9199 66.7217 73.5416 67.5233C58.9358 72.446 42.3438 71.167 28.0973 62.6065L28.095 62.6051L28.0578 62.5828L28.0528 62.5796L27.8579 62.4619C26.7341 61.7789 25.6438 61.0616 24.5874 60.3121ZM44.2913 91.3534C37.342 88.3046 31.4773 82.8816 27.98 75.7753C40.1453 77.4355 53.8268 79.3699 46.3038 87.6393C45.0583 89.0083 44.4302 90.2429 44.2913 91.3534ZM90.3364 63.6457C89.3511 76.8515 80.3959 88.703 66.9547 92.7329C63.2027 93.8579 59.4074 94.2815 55.7093 94.0798C60.0834 91.4144 63.3608 87.9623 64.2707 84.0385C65.2802 79.6851 68.5995 78.6378 72.824 77.3047C78.1606 75.6208 84.9417 73.481 90.3364 63.6457Z" fill="#28E5AA"/>
<g style="mix-blend-mode:screen" opacity="0.5">
<path fill-rule="evenodd" clip-rule="evenodd" d="M89.9806 66.5987C90.7828 61.792 90.5257 56.7324 89.0317 51.7494C85.7275 40.7288 77.1653 32.724 66.9098 29.6551C63.7373 29.1132 60.4982 29.2227 57.3602 30.0863C44.7325 33.5619 38.5241 47.9344 43.4934 62.1883C48.4626 76.4422 62.7278 85.1798 75.3555 81.7042C82.7507 79.6688 87.9443 73.8961 89.9806 66.5987Z" fill="#12FFB4"/>
</g>
<g style="mix-blend-mode:multiply" opacity="0.5">
<path d="M89.0318 51.7493C94.2527 69.163 84.3686 87.512 66.9548 92.733C49.5411 97.9539 31.1921 88.0697 25.9711 70.656C20.7502 53.2423 30.6343 34.8933 48.0481 29.6723C65.4618 24.4513 83.8108 34.3355 89.0318 51.7493Z" fill="url(#paint0_linear_145_6873)"/>
</g>
<g filter="url(#filter0_f_145_6873)">
<rect x="102.053" y="53.0117" width="8.39857" height="8.39857" fill="#0AFFF0"/>
</g>
<rect x="102.053" y="53.0117" width="8.39857" height="8.39857" fill="#0AFFF0"/>
<g opacity="0.5">
<g filter="url(#filter1_f_145_6873)">
<rect x="20.1523" y="91.4458" width="2.69848" height="2.69848" fill="#C0AAFF" fill-opacity="0.5"/>
</g>
<rect x="20.1523" y="91.4458" width="2.69848" height="2.69848" fill="#C0AAFF" fill-opacity="0.5"/>
</g>
<g filter="url(#filter2_f_145_6873)">
<rect x="29.3193" y="96.374" width="7.96863" height="7.96863" fill="white"/>
</g>
<rect x="29.3193" y="96.374" width="7.96863" height="7.96863" fill="white"/>
<g filter="url(#filter3_f_145_6873)">
<rect x="95.1152" y="73.2473" width="6.65289" height="6.65289" fill="#D6F85F"/>
</g>
<rect x="95.1152" y="73.2473" width="6.65289" height="6.65289" fill="#D6F85F"/>
<g filter="url(#filter4_f_145_6873)">
<rect x="13.1006" y="24.4558" width="9.74481" height="9.74481" fill="#F071F2"/>
</g>
<rect x="13.1006" y="24.4558" width="9.74481" height="9.74481" fill="#F071F2"/>
<g filter="url(#filter5_f_145_6873)">
<rect x="24.8467" y="14.4431" width="4.46587" height="4.46587" fill="#9171FF" fill-opacity="0.5"/>
</g>
<rect x="24.8467" y="14.4431" width="4.46587" height="4.46587" fill="#9171FF" fill-opacity="0.5"/>
<g filter="url(#filter6_d_145_6873)">
<path fill-rule="evenodd" clip-rule="evenodd" d="M56.315 28.2996C56.7948 28.572 57.2741 28.8586 57.7524 29.1591C64.979 33.6986 72.1132 41.4631 77.4821 51.3595C82.5933 60.7811 85.2149 70.4959 85.336 78.7751C84.8975 79.4703 84.433 80.1494 83.9433 80.811C84.2639 72.403 81.7366 62.075 76.2779 52.0128C71.0001 42.2842 64.0162 34.7117 57.0236 30.3192C55.9269 29.6302 54.8334 29.0213 53.749 28.4951C54.6063 28.3958 55.4622 28.3309 56.315 28.2996Z" fill="#D9D7EB"/>
</g>
<g opacity="0.25" filter="url(#filter7_f_145_6873)">
<path fill-rule="evenodd" clip-rule="evenodd" d="M55.6628 94.0775C61.0506 97.7092 66.4419 99.4458 71.0872 98.9335C71.4632 98.892 71.8017 99.1632 71.8432 99.5392C71.8847 99.9153 71.6134 100.254 71.2374 100.295C65.57 100.92 59.1109 98.4803 52.9628 93.8305C52.9537 93.8236 52.9446 93.8167 52.9355 93.8098C53.8372 93.9366 54.747 94.0262 55.6628 94.0775ZM28.4004 45.819C28.3997 45.5713 28.4013 45.3249 28.4052 45.0799C28.5395 36.5714 31.4269 29.5728 37.2662 26.405C37.5988 26.2246 38.0146 26.3479 38.195 26.6804C38.3754 27.013 38.2521 27.4288 37.9195 27.6092C33.081 30.2341 30.3194 35.9243 29.8441 43.3522C29.3275 44.1535 28.8458 44.9766 28.4004 45.819Z" fill="url(#paint1_linear_145_6873)"/>
</g>
<path fill-rule="evenodd" clip-rule="evenodd" d="M71.2353 100.295C65.5685 100.92 59.1102 98.4798 52.9628 93.8305C52.9537 93.8236 52.9446 93.8167 52.9355 93.8098C53.8372 93.9366 54.747 94.0262 55.6628 94.0775C61.0506 97.7092 66.4419 99.4458 71.0872 98.9335C72.7696 98.7479 74.3576 98.2676 75.8212 97.4736C77.7161 96.4456 79.2859 94.9549 80.5271 93.0768L80.5299 93.0726L80.5354 93.0642C80.7437 92.7484 81.1685 92.6612 81.4844 92.8695C81.8002 93.0777 81.8874 93.5026 81.6791 93.8184L81.67 93.8322L81.667 93.8367C80.3147 95.8816 78.5841 97.5333 76.4745 98.6778C74.8458 99.5614 73.0854 100.091 71.2374 100.295L71.2353 100.295ZM29.8441 43.3522C30.3194 35.9243 33.081 30.2341 37.9195 27.6092C38.2521 27.4288 38.3754 27.013 38.195 26.6804C38.0146 26.3479 37.5988 26.2246 37.2662 26.405C31.4269 29.5728 28.5395 36.5714 28.4052 45.0799C28.4013 45.3249 28.3997 45.5713 28.4004 45.819C28.8458 44.9766 29.3275 44.1535 29.8441 43.3522ZM82.1336 91.6861C81.7897 91.5285 81.6387 91.1219 81.7964 90.778L81.8091 90.7501C81.9662 90.406 82.3725 90.2543 82.7167 90.4114C83.0609 90.5685 83.2125 90.9748 83.0554 91.319L83.0417 91.3489C82.8841 91.6928 82.4775 91.8438 82.1336 91.6861ZM83.1929 89.1487C82.8316 89.0365 82.6296 88.6527 82.7418 88.2914L82.7509 88.2619C82.8626 87.9005 83.2461 87.698 83.6076 87.8097C83.9691 87.9213 84.1716 88.3049 84.0599 88.6663L84.0502 88.6976C83.938 89.0589 83.5542 89.2609 83.1929 89.1487ZM83.933 86.5005C83.5617 86.4276 83.3199 86.0676 83.3927 85.6964L83.3987 85.666C83.4711 85.2947 83.8308 85.0524 84.2021 85.1248C84.5735 85.1972 84.8157 85.557 84.7433 85.9283L84.7371 85.9602C84.6642 86.3314 84.3042 86.5733 83.933 86.5005ZM84.3979 83.7898C84.0216 83.7508 83.7482 83.4142 83.7872 83.0379L83.7888 83.0224C83.8276 82.646 84.1641 82.3725 84.5404 82.4113C84.9168 82.4501 85.1904 82.7866 85.1515 83.163L85.1499 83.1791C85.1108 83.5554 84.7742 83.8288 84.3979 83.7898Z" fill="url(#paint2_linear_145_6873)"/>
<g opacity="0.25" filter="url(#filter8_f_145_6873)">
<path fill-rule="evenodd" clip-rule="evenodd" d="M70.4813 99.6893C70.4398 99.3133 70.711 98.9748 71.087 98.9334C72.7695 98.7478 74.3574 98.2675 75.8211 97.4735C77.7145 96.4463 79.2834 94.957 80.5241 93.081C80.525 93.0796 80.526 93.0781 80.5269 93.0767L80.5353 93.064C80.7436 92.7482 81.1684 92.661 81.4842 92.8693C81.8001 93.0776 81.8873 93.5024 81.679 93.8182L81.673 93.8272M81.6699 93.832C80.3171 95.8791 78.5855 97.5324 76.4744 98.6777C74.8456 99.5612 73.0853 100.091 71.2372 100.295C70.8612 100.337 70.5228 100.065 70.4813 99.6893M36.9906 27.3336C36.8102 27.0011 36.9335 26.5853 37.2661 26.4049C43.1054 23.237 50.5465 24.6323 57.7524 29.1588C64.979 33.6983 72.1132 41.4628 77.4821 51.3593C83.5281 62.5039 86.0906 74.059 85.1514 83.1628C85.1514 83.1629 85.1514 83.1629 85.1514 83.163L85.1497 83.1789C85.1107 83.5552 84.774 83.8287 84.3977 83.7897C84.0215 83.7506 83.748 83.414 83.787 83.0377L83.7886 83.0222C83.7887 83.0216 83.7887 83.021 83.7888 83.0204C84.6928 74.2535 82.2252 62.9752 76.2779 52.0125C71.0001 42.2839 64.0162 34.7114 57.0236 30.3189C50.0103 25.9133 43.1311 24.7817 37.9194 27.6091C37.5868 27.7895 37.171 27.6661 36.9906 27.3336ZM81.7962 90.7778C81.6386 91.1217 81.7896 91.5283 82.1335 91.686C82.4774 91.8436 82.884 91.6926 83.0416 91.3487L83.0553 91.3188C83.2124 90.9747 83.0607 90.5683 82.7166 90.4112C82.3724 90.2542 81.9661 90.4058 81.809 90.75L81.7962 90.7778ZM82.7417 88.2912C82.6295 88.6525 82.8315 89.0364 83.1928 89.1485C83.5541 89.2607 83.9379 89.0587 84.0501 88.6974L84.0597 88.6661C84.1714 88.3047 83.9689 87.9211 83.6075 87.8095C83.246 87.6978 82.8625 87.9003 82.7508 88.2617L82.7417 88.2912ZM83.3926 85.6962C83.3197 86.0674 83.5616 86.4274 83.9328 86.5003C84.3041 86.5731 84.6641 86.3312 84.7369 85.96L84.7432 85.9281C84.8156 85.5568 84.5733 85.1971 84.202 85.1246C83.8307 85.0522 83.471 85.2945 83.3985 85.6658L83.3926 85.6962Z" fill="#C0AAFF"/>
</g>
<path fill-rule="evenodd" clip-rule="evenodd" d="M70.4813 99.6893C70.4398 99.3133 70.711 98.9748 71.087 98.9334C72.7695 98.7478 74.3574 98.2675 75.8211 97.4735C77.7145 96.4463 79.2834 94.957 80.5241 93.081C80.525 93.0796 80.526 93.0781 80.5269 93.0767L80.5353 93.064C80.7436 92.7482 81.1684 92.661 81.4842 92.8693C81.8001 93.0776 81.8873 93.5024 81.679 93.8182L81.673 93.8272M81.6699 93.832C80.3171 95.8791 78.5855 97.5324 76.4744 98.6777C74.8456 99.5612 73.0853 100.091 71.2372 100.295C70.8612 100.337 70.5228 100.065 70.4813 99.6893M36.9906 27.3336C36.8102 27.0011 36.9335 26.5853 37.2661 26.4049C43.1054 23.237 50.5465 24.6323 57.7524 29.1588C64.979 33.6983 72.1132 41.4628 77.4821 51.3593C83.5281 62.5039 86.0906 74.059 85.1514 83.1628C85.1514 83.1629 85.1514 83.1629 85.1514 83.163L85.1497 83.1789C85.1107 83.5552 84.774 83.8287 84.3977 83.7897C84.0215 83.7506 83.748 83.414 83.787 83.0377L83.7886 83.0222C83.7887 83.0216 83.7887 83.021 83.7888 83.0204C84.6928 74.2535 82.2252 62.9752 76.2779 52.0125C71.0001 42.2839 64.0162 34.7114 57.0236 30.3189C50.0103 25.9133 43.1311 24.7817 37.9194 27.6091C37.5868 27.7895 37.171 27.6661 36.9906 27.3336ZM81.7962 90.7778C81.6386 91.1217 81.7896 91.5283 82.1335 91.686C82.4774 91.8436 82.884 91.6926 83.0416 91.3487L83.0553 91.3188C83.2124 90.9747 83.0607 90.5683 82.7166 90.4112C82.3724 90.2542 81.9661 90.4058 81.809 90.75L81.7962 90.7778ZM82.7417 88.2912C82.6295 88.6525 82.8315 89.0364 83.1928 89.1485C83.5541 89.2607 83.9379 89.0587 84.0501 88.6974L84.0597 88.6661C84.1714 88.3047 83.9689 87.9211 83.6075 87.8095C83.246 87.6978 82.8625 87.9003 82.7508 88.2617L82.7417 88.2912ZM83.3926 85.6962C83.3197 86.0674 83.5616 86.4274 83.9328 86.5003C84.3041 86.5731 84.6641 86.3312 84.7369 85.96L84.7432 85.9281C84.8156 85.5568 84.5733 85.1971 84.202 85.1246C83.8307 85.0522 83.471 85.2945 83.3985 85.6658L83.3926 85.6962Z" fill="url(#paint3_linear_145_6873)"/>
<g filter="url(#filter9_d_145_6873)">
<path fill-rule="evenodd" clip-rule="evenodd" d="M76.2642 34.1553C67.3532 33.5544 56.326 36.1584 45.6885 41.9292L45.6876 41.9297L45.5945 41.9803C45.2622 42.1612 45.1395 42.5772 45.3204 42.9094C45.5013 43.2417 45.9173 43.3644 46.2495 43.1836L46.3417 43.1334C57.7504 36.9442 69.4824 34.5314 78.3737 35.7451C77.6913 35.1866 76.9875 34.6563 76.2642 34.1553ZM24.6007 62.4633C27.1338 58.4096 30.7416 54.3487 35.2361 50.6141L35.3166 50.5473C35.6079 50.306 35.6485 49.8742 35.4072 49.5828C35.166 49.2915 34.7341 49.2509 34.4428 49.4921L34.361 49.56L34.3605 49.5604C30.4196 52.835 27.1172 56.3796 24.5981 59.9853C24.5678 60.8074 24.5684 61.6339 24.6007 62.4633ZM43.521 44.7469C43.8451 44.5517 43.9495 44.1307 43.7542 43.8067C43.559 43.4826 43.1381 43.3782 42.814 43.5734C42.753 43.6102 42.6921 43.647 42.6313 43.6839C42.3078 43.8801 42.2046 44.3014 42.4008 44.6248C42.597 44.9483 43.0183 45.0515 43.3417 44.8553C43.4014 44.8191 43.4612 44.783 43.521 44.7469ZM40.6907 46.5453C41.005 46.3348 41.0892 45.9094 40.8787 45.595C40.6682 45.2807 40.2427 45.1965 39.9283 45.407C39.8691 45.4467 39.81 45.4864 39.751 45.5262C39.4373 45.7377 39.3544 46.1634 39.5659 46.4771C39.7774 46.7908 40.2031 46.8736 40.5168 46.6622C40.5747 46.6232 40.6326 46.5842 40.6907 46.5453ZM37.9522 48.4787C38.2557 48.2528 38.3187 47.8237 38.0928 47.5202C37.867 47.2167 37.4379 47.1537 37.1344 47.3796C37.0772 47.4221 37.0201 47.4647 36.9631 47.5074C36.6603 47.7342 36.5987 48.1635 36.8255 48.4663C37.0523 48.7691 37.4816 48.8307 37.7844 48.6039C37.8402 48.5621 37.8962 48.5204 37.9522 48.4787Z" fill="url(#paint4_linear_145_6873)" shape-rendering="crispEdges"/>
</g>
<g opacity="0.25" filter="url(#filter10_f_145_6873)">
<path fill-rule="evenodd" clip-rule="evenodd" d="M46.2493 43.1836L46.3415 43.1335C59.2681 36.1207 72.6099 33.9562 81.7642 36.4219C86.3924 37.6684 89.8983 40.0805 91.8023 43.5903C94.3212 48.2333 93.6979 54.1998 90.4169 60.4055C90.4405 61.357 90.4224 62.3044 90.3638 63.2452C94.8018 56.095 96.1483 48.7283 93.0066 42.937C90.8771 39.0118 87.0058 36.4158 82.125 35.1002L82.1206 35.099C72.5166 32.5123 58.8061 34.8128 45.6882 41.9293L45.6873 41.9298L45.5943 41.9803C45.262 42.1612 45.1393 42.5772 45.3201 42.9095C45.501 43.2418 45.917 43.3645 46.2493 43.1836ZM43.2749 90.8872C42.4693 90.5008 41.6795 90.0819 40.9078 89.6317C40.4096 89.6426 39.917 89.6442 39.4303 89.6365C31.1491 89.5058 24.7654 86.7037 21.938 81.492C20.0008 77.9212 19.92 73.5794 21.4805 68.9299L21.4835 68.9214C23.5223 62.8546 28.3333 56.3497 35.2358 50.6141L35.3163 50.5474C35.6077 50.3061 35.6483 49.8743 35.407 49.5829C35.1657 49.2915 34.7339 49.2509 34.4425 49.4922L34.3607 49.56L34.3603 49.5604C27.3272 55.4045 22.3279 62.1079 20.1848 68.485L20.1848 68.4851L20.1848 68.485C18.5372 73.3879 18.5651 78.1477 20.7338 82.1453C23.9016 87.9846 30.9001 90.872 39.4087 91.0063C40.6632 91.0261 41.9541 90.9864 43.2749 90.8872ZM43.5208 44.747C43.8448 44.5517 43.9492 44.1308 43.754 43.8067C43.5588 43.4827 43.1378 43.3782 42.8138 43.5735C42.7527 43.6102 42.6918 43.6471 42.631 43.6839C42.3075 43.8801 42.2044 44.3014 42.4005 44.6249C42.5967 44.9483 43.018 45.0515 43.3415 44.8553C43.4011 44.8191 43.4609 44.783 43.5208 44.747ZM40.6904 46.5454C41.0048 46.3349 41.0889 45.9094 40.8784 45.5951C40.6679 45.2807 40.2424 45.1966 39.9281 45.4071C39.8689 45.4467 39.8098 45.4865 39.7508 45.5262C39.4371 45.7377 39.3542 46.1634 39.5657 46.4771C39.7771 46.7908 40.2029 46.8737 40.5165 46.6622C40.5744 46.6232 40.6324 46.5843 40.6904 46.5454ZM37.9519 48.4787C38.2555 48.2529 38.3184 47.8238 38.0926 47.5203C37.8668 47.2167 37.4376 47.1538 37.1341 47.3796C37.0769 47.4222 37.0199 47.4648 36.9629 47.5074C36.6601 47.7342 36.5985 48.1636 36.8253 48.4664C37.0521 48.7692 37.4814 48.8308 37.7842 48.604C37.84 48.5622 37.8959 48.5204 37.9519 48.4787Z" fill="url(#paint5_linear_145_6873)"/>
</g>
<path fill-rule="evenodd" clip-rule="evenodd" d="M46.2493 43.1836L46.3415 43.1335C59.2681 36.1207 72.6099 33.9562 81.7642 36.4219C86.3924 37.6684 89.8983 40.0805 91.8023 43.5903C94.3212 48.2333 93.6979 54.1998 90.4169 60.4055C90.4405 61.357 90.4224 62.3044 90.3638 63.2452C94.8018 56.095 96.1483 48.7283 93.0066 42.937C90.8771 39.0118 87.0058 36.4158 82.125 35.1002L82.1206 35.099C72.5166 32.5123 58.8061 34.8128 45.6882 41.9293L45.6873 41.9298L45.5943 41.9803C45.262 42.1612 45.1393 42.5772 45.3201 42.9095C45.501 43.2418 45.917 43.3645 46.2493 43.1836ZM43.2749 90.8872C42.4693 90.5008 41.6795 90.0819 40.9078 89.6317C40.4096 89.6426 39.917 89.6442 39.4303 89.6365C31.1491 89.5058 24.7654 86.7037 21.938 81.492C20.0008 77.9212 19.92 73.5794 21.4805 68.9299L21.4835 68.9214C23.5223 62.8546 28.3333 56.3497 35.2358 50.6141L35.3163 50.5474C35.6077 50.3061 35.6483 49.8743 35.407 49.5829C35.1657 49.2915 34.7339 49.2509 34.4425 49.4922L34.3607 49.56L34.3603 49.5604C27.3272 55.4045 22.3279 62.1079 20.1848 68.485L20.1848 68.4851L20.1848 68.485C18.5372 73.3879 18.5651 78.1477 20.7338 82.1453C23.9016 87.9846 30.9001 90.872 39.4087 91.0063C40.6632 91.0261 41.9541 90.9864 43.2749 90.8872ZM43.5208 44.747C43.8448 44.5517 43.9492 44.1308 43.754 43.8067C43.5588 43.4827 43.1378 43.3782 42.8138 43.5735C42.7527 43.6102 42.6918 43.6471 42.631 43.6839C42.3075 43.8801 42.2044 44.3014 42.4005 44.6249C42.5967 44.9483 43.018 45.0515 43.3415 44.8553C43.4011 44.8191 43.4609 44.783 43.5208 44.747ZM40.6904 46.5454C41.0048 46.3349 41.0889 45.9094 40.8784 45.5951C40.6679 45.2807 40.2424 45.1966 39.9281 45.4071C39.8689 45.4467 39.8098 45.4865 39.7508 45.5262C39.4371 45.7377 39.3542 46.1634 39.5657 46.4771C39.7771 46.7908 40.2029 46.8737 40.5165 46.6622C40.5744 46.6232 40.6324 46.5843 40.6904 46.5454ZM37.9519 48.4787C38.2555 48.2529 38.3184 47.8238 38.0926 47.5203C37.8668 47.2167 37.4376 47.1538 37.1341 47.3796C37.0769 47.4222 37.0199 47.4648 36.9629 47.5074C36.6601 47.7342 36.5985 48.1636 36.8253 48.4664C37.0521 48.7692 37.4814 48.8308 37.7842 48.604C37.84 48.5622 37.8959 48.5204 37.9519 48.4787Z" fill="url(#paint6_linear_145_6873)"/>
<path fill-rule="evenodd" clip-rule="evenodd" d="M45.6883 41.9293L45.6882 41.9292L45.5943 41.9802C45.4547 42.0562 45.3521 42.1736 45.2935 42.3089C45.2124 42.4958 45.2152 42.7167 45.3201 42.9095C45.501 43.2418 45.917 43.3645 46.2492 43.1836L46.3336 43.1378L46.3413 43.1336C59.268 36.1209 72.6097 33.9564 81.7641 36.422C82.1294 36.5204 82.5053 36.304 82.6037 35.9387C82.7021 35.5734 82.4857 35.1975 82.1204 35.0991C72.5165 32.5124 58.8061 34.8129 45.6883 41.9293ZM43.8321 44.325C43.8743 44.1549 43.8516 43.9686 43.754 43.8066C43.5588 43.4825 43.1378 43.3781 42.8138 43.5734C42.7528 43.6101 42.6918 43.6469 42.631 43.6838C42.5065 43.7593 42.4147 43.8682 42.36 43.9919C42.2724 44.1898 42.2798 44.4258 42.4005 44.6249C42.5967 44.9483 43.018 45.0515 43.3414 44.8553C43.4011 44.8191 43.4609 44.783 43.5207 44.7469C43.602 44.698 43.6694 44.6348 43.7218 44.5626C43.7739 44.4907 43.8111 44.4099 43.8321 44.325ZM40.9436 46.2349C41.0265 46.0313 41.01 45.7914 40.8784 45.5949C40.6679 45.2806 40.2424 45.1964 39.9281 45.407C39.8689 45.4466 39.8098 45.4863 39.7508 45.5261C39.6386 45.6017 39.556 45.7047 39.5057 45.8201C39.4154 46.0277 39.4297 46.2755 39.5656 46.4771C39.7771 46.7908 40.2028 46.8737 40.5165 46.6622C40.5744 46.6232 40.6323 46.5843 40.6904 46.5454C40.7813 46.4845 40.8529 46.4056 40.9038 46.3167C40.9189 46.2903 40.9322 46.2629 40.9436 46.2349ZM38.1894 48.1561C38.2621 47.9486 38.2338 47.7098 38.0926 47.5201C37.8668 47.2166 37.4376 47.1537 37.1341 47.3795C37.0769 47.422 37.0199 47.4647 36.9629 47.5073C36.8653 47.5804 36.7928 47.6746 36.7469 47.7787C36.6503 47.9978 36.6715 48.2611 36.8252 48.4664C37.052 48.7692 37.4814 48.8308 37.7842 48.604C37.84 48.5622 37.8959 48.5204 37.9519 48.4787C38.0289 48.4215 38.0903 48.3511 38.1356 48.2731C38.1573 48.2357 38.1752 48.1965 38.1894 48.1561ZM35.5267 50.2443C35.6023 50.0257 35.5654 49.774 35.407 49.5828C35.1657 49.2914 34.7339 49.2508 34.4425 49.4921L34.3603 49.5603L34.3603 49.5603L34.3602 49.5604L34.3603 49.5604L34.3601 49.5605C27.327 55.4046 22.3277 62.1081 20.1847 68.4852C20.0641 68.8438 20.2572 69.2322 20.6158 69.3527C20.9744 69.4732 21.3628 69.2802 21.4833 68.9216C23.5221 62.8547 28.3331 56.3498 35.2357 50.6143L35.2396 50.611L35.3163 50.5474C35.3892 50.487 35.4463 50.4147 35.4874 50.3357C35.5027 50.3061 35.5158 50.2755 35.5267 50.2443Z" fill="white"/>
<defs>
<filter id="filter0_f_145_6873" x="94.7009" y="45.6592" width="23.1031" height="23.1031" filterUnits="userSpaceOnUse" color-interpolation-filters="sRGB">
<feFlood flood-opacity="0" result="BackgroundImageFix"/>
<feBlend mode="normal" in="SourceGraphic" in2="BackgroundImageFix" result="shape"/>
<feGaussianBlur stdDeviation="3.67591" result="effect1_foregroundBlur_145_6873"/>
</filter>
<filter id="filter1_f_145_6873" x="12.8005" y="84.0937" width="17.4019" height="17.4024" filterUnits="userSpaceOnUse" color-interpolation-filters="sRGB">
<feFlood flood-opacity="0" result="BackgroundImageFix"/>
<feBlend mode="normal" in="SourceGraphic" in2="BackgroundImageFix" result="shape"/>
<feGaussianBlur stdDeviation="3.67591" result="effect1_foregroundBlur_145_6873"/>
</filter>
<filter id="filter2_f_145_6873" x="16.2012" y="83.2551" width="34.206" height="34.2058" filterUnits="userSpaceOnUse" color-interpolation-filters="sRGB">
<feFlood flood-opacity="0" result="BackgroundImageFix"/>
<feBlend mode="normal" in="SourceGraphic" in2="BackgroundImageFix" result="shape"/>
<feGaussianBlur stdDeviation="6.55908" result="effect1_foregroundBlur_145_6873"/>
</filter>
<filter id="filter3_f_145_6873" x="88.1896" y="66.3212" width="20.5045" height="20.5045" filterUnits="userSpaceOnUse" color-interpolation-filters="sRGB">
<feFlood flood-opacity="0" result="BackgroundImageFix"/>
<feBlend mode="normal" in="SourceGraphic" in2="BackgroundImageFix" result="shape"/>
<feGaussianBlur stdDeviation="3.4628" result="effect1_foregroundBlur_145_6873"/>
</filter>
<filter id="filter4_f_145_6873" x="7.10059" y="18.4551" width="21.7451" height="21.7456" filterUnits="userSpaceOnUse" color-interpolation-filters="sRGB">
<feFlood flood-opacity="0" result="BackgroundImageFix"/>
<feBlend mode="normal" in="SourceGraphic" in2="BackgroundImageFix" result="shape"/>
<feGaussianBlur stdDeviation="3" result="effect1_foregroundBlur_145_6873"/>
</filter>
<filter id="filter5_f_145_6873" x="17.4949" y="7.09105" width="19.1695" height="19.1697" filterUnits="userSpaceOnUse" color-interpolation-filters="sRGB">
<feFlood flood-opacity="0" result="BackgroundImageFix"/>
<feBlend mode="normal" in="SourceGraphic" in2="BackgroundImageFix" result="shape"/>
<feGaussianBlur stdDeviation="3.67591" result="effect1_foregroundBlur_145_6873"/>
</filter>
<filter id="filter6_d_145_6873" x="50.849" y="28.2996" width="37.3869" height="58.3115" filterUnits="userSpaceOnUse" color-interpolation-filters="sRGB">
<feFlood flood-opacity="0" result="BackgroundImageFix"/>
<feColorMatrix in="SourceAlpha" type="matrix" values="0 0 0 0 0 0 0 0 0 0 0 0 0 0 0 0 0 0 127 0" result="hardAlpha"/>
<feOffset dy="2.9"/>
<feGaussianBlur stdDeviation="1.45"/>
<feComposite in2="hardAlpha" operator="out"/>
<feColorMatrix type="matrix" values="0 0 0 0 0 0 0 0 0 0 0 0 0 0 0 0 0 0 0.15 0"/>
<feBlend mode="normal" in2="BackgroundImageFix" result="effect1_dropShadow_145_6873"/>
<feBlend mode="normal" in="SourceGraphic" in2="effect1_dropShadow_145_6873" result="shape"/>
</filter>
<filter id="filter7_f_145_6873" x="27.4004" y="25.322" width="45.4473" height="76.0698" filterUnits="userSpaceOnUse" color-interpolation-filters="sRGB">
<feFlood flood-opacity="0" result="BackgroundImageFix"/>
<feBlend mode="normal" in="SourceGraphic" in2="BackgroundImageFix" result="shape"/>
<feGaussianBlur stdDeviation="0.5" result="effect1_foregroundBlur_145_6873"/>
</filter>
<filter id="filter8_f_145_6873" x="35.9072" y="23.6899" width="50.4336" height="77.6094" filterUnits="userSpaceOnUse" color-interpolation-filters="sRGB">
<feFlood flood-opacity="0" result="BackgroundImageFix"/>
<feBlend mode="normal" in="SourceGraphic" in2="BackgroundImageFix" result="shape"/>
<feGaussianBlur stdDeviation="0.5" result="effect1_foregroundBlur_145_6873"/>
</filter>
<filter id="filter9_d_145_6873" x="21.6762" y="34.0708" width="59.5979" height="34.1926" filterUnits="userSpaceOnUse" color-interpolation-filters="sRGB">
<feFlood flood-opacity="0" result="BackgroundImageFix"/>
<feColorMatrix in="SourceAlpha" type="matrix" values="0 0 0 0 0 0 0 0 0 0 0 0 0 0 0 0 0 0 127 0" result="hardAlpha"/>
<feOffset dy="2.9"/>
<feGaussianBlur stdDeviation="1.45"/>
<feComposite in2="hardAlpha" operator="out"/>
<feColorMatrix type="matrix" values="0 0 0 0 0.0705882 0 0 0 0 0.0705882 0 0 0 0 0.0705882 0 0 0 0.1 0"/>
<feBlend mode="normal" in2="BackgroundImageFix" result="effect1_dropShadow_145_6873"/>
<feBlend mode="normal" in="SourceGraphic" in2="effect1_dropShadow_145_6873" result="shape"/>
</filter>
<filter id="filter10_f_145_6873" x="17.0195" y="32.0708" width="79.7021" height="60.9404" filterUnits="userSpaceOnUse" color-interpolation-filters="sRGB">
<feFlood flood-opacity="0" result="BackgroundImageFix"/>
<feBlend mode="normal" in="SourceGraphic" in2="BackgroundImageFix" result="shape"/>
<feGaussianBlur stdDeviation="1" result="effect1_foregroundBlur_145_6873"/>
</filter>
<linearGradient id="paint0_linear_145_6873" x1="76.2413" y1="36.3882" x2="38.3703" y2="83.4188" gradientUnits="userSpaceOnUse">
<stop offset="0.302083" stop-color="#9F9F9F" stop-opacity="0"/>
<stop offset="1" stop-color="#9F9F9F"/>
</linearGradient>
<linearGradient id="paint1_linear_145_6873" x1="55.4245" y1="55.5148" x2="30.2272" y2="68.0367" gradientUnits="userSpaceOnUse">
<stop offset="0.477771" stop-color="#D8D3FF"/>
<stop offset="1" stop-color="#D8D3FF" stop-opacity="0"/>
</linearGradient>
<linearGradient id="paint2_linear_145_6873" x1="69.2709" y1="48.4947" x2="24.4443" y2="69.3158" gradientUnits="userSpaceOnUse">
<stop offset="0.477771" stop-color="#D8D3FF"/>
<stop offset="1" stop-color="#D8D3FF" stop-opacity="0"/>
</linearGradient>
<linearGradient id="paint3_linear_145_6873" x1="45.0225" y1="22.197" x2="84.2307" y2="94.4698" gradientUnits="userSpaceOnUse">
<stop stop-color="#C0AAFF"/>
<stop offset="0.640625" stop-color="#9171FF"/>
<stop offset="1" stop-color="#C0AAFF"/>
</linearGradient>
<linearGradient id="paint4_linear_145_6873" x1="47.1613" y1="41.1302" x2="53.0203" y2="51.4466" gradientUnits="userSpaceOnUse">
<stop stop-color="#C0AAFF"/>
<stop offset="1" stop-color="#C0AAFF" stop-opacity="0"/>
</linearGradient>
<linearGradient id="paint5_linear_145_6873" x1="45.6882" y1="41.9293" x2="71.4669" y2="83.458" gradientUnits="userSpaceOnUse">
<stop stop-color="#C0AAFF"/>
<stop offset="1" stop-color="#C0AAFF" stop-opacity="0"/>
</linearGradient>
<linearGradient id="paint6_linear_145_6873" x1="45.6882" y1="41.9293" x2="71.4669" y2="83.458" gradientUnits="userSpaceOnUse">
<stop stop-color="#C0AAFF"/>
<stop offset="1" stop-color="#C0AAFF" stop-opacity="0"/>
</linearGradient>
</defs>
</svg>
