<svg width="120" height="120" viewBox="0 0 120 120" fill="none" xmlns="http://www.w3.org/2000/svg">
<g clip-path="url(#clip0_145_6877)">
<path d="M62.4473 59.9998L104.807 70.8134" stroke="#9171FF" stroke-opacity="0.5" stroke-width="2.30208"/>
<path d="M62.447 59.9998L49.416 22.9587" stroke="#9171FF" stroke-opacity="0.5" stroke-width="2.30208"/>
<g filter="url(#filter0_f_145_6877)">
<rect x="65.0283" y="33.1868" width="12.3119" height="12.3119" fill="#12FFB4"/>
</g>
<rect x="65.0283" y="33.1868" width="12.3119" height="12.3119" fill="#12FFB4"/>
<path d="M62.4464 59.9997L16.1797 39.3426M62.4464 59.9997L103.141 36.8828M62.4464 59.9997L98.5554 99.2772M62.4464 59.9997L21.9397 77.0173M62.4464 59.9997H74.0049M62.4464 59.9997V48.4412M62.4464 59.9997H50.888M62.4464 59.9997V71.5581" stroke="#9171FF" stroke-width="2.30208"/>
<path d="M54.5531 26.1918C54.5531 28.4097 52.7551 30.2076 50.5373 30.2076C48.3194 30.2076 46.5215 28.4097 46.5215 26.1918C46.5215 23.974 48.3194 22.176 50.5373 22.176C52.7551 22.176 54.5531 23.974 54.5531 26.1918Z" fill="#9171FF"/>
<path d="M108.662 70.8136C108.662 72.9436 106.936 74.6702 104.806 74.6702C102.676 74.6702 100.949 72.9436 100.949 70.8136C100.949 68.6837 102.676 66.957 104.806 66.957C106.936 66.957 108.662 68.6837 108.662 70.8136Z" fill="#9171FF"/>
<path d="M82.3274 60.0001C82.3274 70.9798 73.4266 79.8806 62.4469 79.8806C51.4672 79.8806 42.5664 70.9798 42.5664 60.0001C42.5664 49.0204 51.4672 40.1196 62.4469 40.1196C73.4266 40.1196 82.3274 49.0204 82.3274 60.0001Z" fill="#C0AAFF"/>
<g style="mix-blend-mode:multiply">
<path d="M82.3274 60.0001C82.3274 70.9798 73.4266 79.8806 62.4469 79.8806C51.4672 79.8806 42.5664 70.9798 42.5664 60.0001C42.5664 49.0204 51.4672 40.1196 62.4469 40.1196C73.4266 40.1196 82.3274 49.0204 82.3274 60.0001Z" fill="#C0AAFF"/>
</g>
<g style="mix-blend-mode:multiply">
<path fill-rule="evenodd" clip-rule="evenodd" d="M81.3472 66.183C78.1032 71.4508 72.283 74.9627 65.6426 74.9627C55.4639 74.9627 47.2124 66.7112 47.2124 56.5325C47.2124 50.4292 50.1791 45.0189 54.7492 41.6648C47.5921 44.6731 42.5664 51.7497 42.5664 60.0001C42.5664 70.9798 51.4672 79.8806 62.4469 79.8806C71.268 79.8806 78.7473 74.1355 81.3472 66.183Z" fill="#C0AAFF"/>
</g>
<path d="M50.8211 50.8264C50.3023 50.8264 49.8818 51.2469 49.8818 51.7656C49.8818 52.2844 50.3023 52.7049 50.8211 52.7049H51.8418C52.4691 52.7049 53.0358 53.0793 53.2818 53.6563L57.0681 62.5378L56.6873 63.2486C55.9052 64.7085 56.9629 66.4749 58.6191 66.4749H70.2581C70.7768 66.4749 71.1973 66.0544 71.1973 65.5357C71.1973 65.017 70.7768 64.5965 70.2581 64.5965H58.6191C58.3825 64.5965 58.2314 64.3442 58.3431 64.1356L59.1444 62.6398H69.2088C69.7093 62.6398 70.1617 62.3418 70.3593 61.882L73.6233 54.2892C73.8009 53.8759 73.4978 53.4158 73.048 53.4158H55.2213L55.0098 52.9197C54.4686 51.6502 53.2218 50.8264 51.8418 50.8264H50.8211Z" fill="white"/>
<path d="M59.7916 70.2384C59.6282 70.4038 59.4337 70.5351 59.2192 70.6247C59.0047 70.7143 58.7746 70.7605 58.5421 70.7605C58.3097 70.7605 58.0796 70.7143 57.8651 70.6247C57.6506 70.5351 57.456 70.4038 57.2927 70.2384C57.0452 69.9912 56.8766 69.6762 56.8082 69.3332C56.7398 68.9901 56.7746 68.6345 56.9084 68.3113C57.0422 67.9881 57.2688 67.7118 57.5596 67.5174C57.8504 67.3231 58.1923 67.2193 58.5421 67.2193C58.8919 67.2193 59.2339 67.3231 59.5247 67.5174C59.8155 67.7118 60.0421 67.9881 60.1759 68.3113C60.3096 68.6345 60.3445 68.9901 60.2761 69.3332C60.2077 69.6762 60.0391 69.9912 59.7916 70.2384Z" fill="white"/>
<path d="M69.5038 70.6247C69.7183 70.5351 69.9128 70.4038 70.0762 70.2384C70.3237 69.9912 70.4923 69.6762 70.5607 69.3332C70.6291 68.9901 70.5942 68.6345 70.4605 68.3113C70.3267 67.9881 70.1001 67.7118 69.8093 67.5174C69.5184 67.3231 69.1765 67.2193 68.8267 67.2193C68.4769 67.2193 68.135 67.3231 67.8442 67.5174C67.5534 67.7118 67.3268 67.9881 67.193 68.3113C67.0592 68.6345 67.0244 68.9901 67.0928 69.3332C67.1612 69.6762 67.3298 69.9912 67.5773 70.2384C67.7406 70.4038 67.9352 70.5351 68.1497 70.6247C68.3641 70.7143 68.5943 70.7605 68.8267 70.7605C69.0592 70.7605 69.2893 70.7143 69.5038 70.6247Z" fill="white"/>
<path d="M12.9844 77.0177C12.9844 81.9637 16.9939 85.9732 21.9399 85.9732C26.8858 85.9732 30.8953 81.9637 30.8953 77.0177C30.8953 72.0718 26.8858 68.0623 21.9399 68.0623C16.9939 68.0623 12.9844 72.0718 12.9844 77.0177Z" fill="#FFBE16"/>
<g style="mix-blend-mode:multiply">
<path d="M24.1 75.2182L23.5423 76.4427H15.9131L16.3673 75.2182H24.1ZM23.0364 77.5926L22.4442 78.8344H15.9131L16.3673 77.5926H23.0364ZM25.5488 72.0848L24.7439 73.7981C24.5599 73.6525 24.351 73.5106 24.1172 73.3727C23.8834 73.2347 23.6247 73.1197 23.3411 73.0277C23.0575 72.9357 22.747 72.8897 22.4097 72.8897C21.8386 72.8897 21.3346 73.0411 20.8977 73.3439C20.4607 73.6429 20.1177 74.099 19.8686 74.7122C19.6233 75.3217 19.5006 76.094 19.5006 77.0292C19.5006 77.9644 19.6233 78.7367 19.8686 79.3461C20.1177 79.9555 20.4607 80.4078 20.8977 80.7029C21.3346 80.9981 21.8386 81.1456 22.4097 81.1456C22.747 81.1456 23.0575 81.1015 23.3411 81.0134C23.6247 80.9252 23.8796 80.8141 24.1057 80.6799C24.3357 80.5458 24.5331 80.4116 24.6979 80.2775L25.5143 81.9908C25.1042 82.3472 24.6308 82.6155 24.0942 82.7956C23.5615 82.9758 23 83.0659 22.4097 83.0659C21.4285 83.0659 20.5585 82.8263 19.7996 82.3472C19.0445 81.8643 18.4523 81.1724 18.0231 80.2717C17.5938 79.3672 17.3791 78.2863 17.3791 77.0292C17.3791 75.7682 17.5938 74.6854 18.0231 73.7809C18.4523 72.8763 19.0445 72.1826 19.7996 71.6996C20.5585 71.2129 21.4285 70.9695 22.4097 70.9695C23.023 70.9695 23.5921 71.0672 24.1172 71.2627C24.6462 71.4543 25.1234 71.7284 25.5488 72.0848Z" fill="#D19700"/>
</g>
<path d="M28.4262 39.343C28.4262 46.1064 22.9433 51.5892 16.1799 51.5892C9.41644 51.5892 3.93359 46.1064 3.93359 39.343C3.93359 32.5795 9.41644 27.0967 16.1799 27.0967C22.9433 27.0967 28.4262 32.5795 28.4262 39.343Z" fill="#FFBE16"/>
<path d="M28.4262 39.343C28.4262 46.1064 22.9433 51.5892 16.1799 51.5892C9.41644 51.5892 3.93359 46.1064 3.93359 39.343C3.93359 32.5795 9.41644 27.0967 16.1799 27.0967C22.9433 27.0967 28.4262 32.5795 28.4262 39.343Z" fill="#FFBE16"/>
<g style="mix-blend-mode:multiply">
<path d="M13.5911 32.1101L16.819 39.6536L14.9896 40.8826L10.8506 32.1101H13.5911ZM15.5618 39.6113L18.7685 32.1101H21.509L17.3629 40.8826L15.5618 39.6113ZM17.4477 38.9614V46.5756H14.8484V38.9614H17.4477ZM20.4142 39.2016V40.7908H11.7406V39.2016H20.4142ZM20.4142 41.9986V43.5879H11.7406V41.9986H20.4142Z" fill="#D19700"/>
</g>
<path d="M87.7354 99.2776C87.7354 105.253 92.5797 110.098 98.5554 110.098C104.531 110.098 109.375 105.253 109.375 99.2776C109.375 93.3018 104.531 88.4575 98.5554 88.4575C92.5797 88.4575 87.7354 93.3018 87.7354 99.2776Z" fill="#FFBE16"/>
<g style="mix-blend-mode:darken">
<path d="M87.7354 99.2776C87.7354 105.253 92.5797 110.098 98.5554 110.098C104.531 110.098 109.375 105.253 109.375 99.2776C109.375 93.3018 104.531 88.4575 98.5554 88.4575C92.5797 88.4575 87.7354 93.3018 87.7354 99.2776Z" fill="#FFBE16"/>
</g>
<g style="mix-blend-mode:multiply">
<path d="M99.431 98.0721V103.051C99.431 104.73 99.8471 105.29 101.483 105.29C101.799 105.29 102.889 105.29 103.219 105.29C104.683 105.29 105.113 104.543 105.285 101.946C104.826 101.832 104.066 101.53 103.693 101.229C103.635 103.309 103.549 103.668 103.061 103.668C102.803 103.668 101.956 103.668 101.755 103.668C101.296 103.668 101.21 103.596 101.21 103.037V98.0721H99.431ZM92.1418 96.9673V98.6461H105.013V96.9673H92.1418ZM93.4476 93.0645V94.7289H103.693V93.0645H93.4476ZM95.4277 98.2874C95.2555 100.813 94.9829 102.922 91.8262 104.099C92.2136 104.429 92.7014 105.06 92.888 105.49C96.5038 104.041 97.0491 101.444 97.2787 98.2874H95.4277Z" fill="#D19700"/>
</g>
<path d="M92.3203 36.883C92.3203 42.8588 97.1646 47.7031 103.14 47.7031C109.116 47.7031 113.96 42.8588 113.96 36.883C113.96 30.9073 109.116 26.063 103.14 26.063C97.1646 26.063 92.3203 30.9073 92.3203 36.883Z" fill="#FFBE16"/>
<g style="mix-blend-mode:multiply">
<path d="M102.688 44.915V28.8513H103.717V44.915H102.688ZM105.656 33.9904C105.598 33.4424 105.351 33.0157 104.916 32.7104C104.485 32.405 103.924 32.2523 103.234 32.2523C102.749 32.2523 102.333 32.3255 101.985 32.4719C101.638 32.6183 101.373 32.817 101.189 33.068C101.005 33.319 100.91 33.6056 100.906 33.9277C100.906 34.1954 100.967 34.4276 101.088 34.6242C101.214 34.8208 101.383 34.9881 101.596 35.1262C101.81 35.26 102.046 35.373 102.305 35.465C102.565 35.5571 102.826 35.6344 103.09 35.6972L104.295 35.9984C104.78 36.1113 105.246 36.264 105.694 36.4564C106.146 36.6489 106.549 36.8915 106.905 37.1843C107.265 37.4772 107.549 37.8306 107.758 38.2448C107.968 38.6589 108.072 39.1442 108.072 39.7006C108.072 40.4535 107.88 41.1166 107.495 41.6897C107.11 42.2586 106.554 42.7041 105.826 43.0262C105.102 43.3442 104.226 43.5031 103.197 43.5031C102.197 43.5031 101.329 43.3483 100.592 43.0388C99.8604 42.7292 99.2873 42.2774 98.8731 41.6834C98.4632 41.0894 98.2415 40.3657 98.208 39.5123H100.498C100.532 39.9599 100.67 40.3322 100.912 40.6292C101.155 40.9262 101.471 41.148 101.86 41.2944C102.253 41.4408 102.692 41.514 103.178 41.514C103.684 41.514 104.127 41.4387 104.508 41.2881C104.893 41.1333 105.194 40.92 105.412 40.6481C105.629 40.372 105.74 40.0499 105.744 39.6817C105.74 39.3471 105.642 39.071 105.449 38.8534C105.257 38.6317 104.987 38.4477 104.64 38.3013C104.297 38.1507 103.895 38.0168 103.435 37.8997L101.973 37.5232C100.915 37.2513 100.078 36.8392 99.463 36.287C98.8522 35.7307 98.5469 34.9923 98.5469 34.072C98.5469 33.3148 98.7518 32.6518 99.1618 32.0829C99.5759 31.514 100.139 31.0726 100.85 30.7589C101.561 30.441 102.366 30.282 103.266 30.282C104.177 30.282 104.976 30.441 105.663 30.7589C106.353 31.0726 106.895 31.5098 107.288 32.0703C107.681 32.6267 107.884 33.2667 107.896 33.9904H105.656Z" fill="#D19700"/>
</g>
<g filter="url(#filter1_f_145_6877)">
<rect x="44.7383" y="83.0659" width="11.5982" height="11.5982" fill="#F071F2"/>
</g>
<rect x="44.7383" y="83.0659" width="11.5982" height="11.5982" fill="#F071F2"/>
<g filter="url(#filter2_f_145_6877)">
<rect x="61.7783" y="99.2773" width="5.16348" height="5.16348" fill="#9171FF" fill-opacity="0.5"/>
</g>
<rect x="61.7783" y="99.2773" width="5.16348" height="5.16348" fill="#9171FF" fill-opacity="0.5"/>
<g opacity="0.75">
<g filter="url(#filter3_f_145_6877)">
<rect x="77.3408" y="20.55" width="6.54675" height="6.54675" fill="#9171FF" fill-opacity="0.5"/>
</g>
<rect x="77.3408" y="20.55" width="6.54675" height="6.54675" fill="#9171FF" fill-opacity="0.5"/>
</g>
<g filter="url(#filter4_f_145_6877)">
<rect x="30.8955" y="56.1448" width="7.71011" height="7.71011" fill="#D6F85F"/>
</g>
<rect x="30.8955" y="56.1448" width="7.71011" height="7.71011" fill="#D6F85F"/>
</g>
<defs>
<filter id="filter0_f_145_6877" x="55.88" y="24.0384" width="30.6082" height="30.6085" filterUnits="userSpaceOnUse" color-interpolation-filters="sRGB">
<feFlood flood-opacity="0" result="BackgroundImageFix"/>
<feBlend mode="normal" in="SourceGraphic" in2="BackgroundImageFix" result="shape"/>
<feGaussianBlur stdDeviation="4.57418" result="effect1_foregroundBlur_145_6877"/>
</filter>
<filter id="filter1_f_145_6877" x="36.1203" y="74.4479" width="28.8346" height="28.8341" filterUnits="userSpaceOnUse" color-interpolation-filters="sRGB">
<feFlood flood-opacity="0" result="BackgroundImageFix"/>
<feBlend mode="normal" in="SourceGraphic" in2="BackgroundImageFix" result="shape"/>
<feGaussianBlur stdDeviation="4.30899" result="effect1_foregroundBlur_145_6877"/>
</filter>
<filter id="filter2_f_145_6877" x="52.63" y="90.129" width="23.4598" height="23.4603" filterUnits="userSpaceOnUse" color-interpolation-filters="sRGB">
<feFlood flood-opacity="0" result="BackgroundImageFix"/>
<feBlend mode="normal" in="SourceGraphic" in2="BackgroundImageFix" result="shape"/>
<feGaussianBlur stdDeviation="4.57418" result="effect1_foregroundBlur_145_6877"/>
</filter>
<filter id="filter3_f_145_6877" x="68.1925" y="11.4017" width="24.8436" height="24.8433" filterUnits="userSpaceOnUse" color-interpolation-filters="sRGB">
<feFlood flood-opacity="0" result="BackgroundImageFix"/>
<feBlend mode="normal" in="SourceGraphic" in2="BackgroundImageFix" result="shape"/>
<feGaussianBlur stdDeviation="4.57418" result="effect1_foregroundBlur_145_6877"/>
</filter>
<filter id="filter4_f_145_6877" x="28.4068" y="53.656" width="12.6874" height="12.6877" filterUnits="userSpaceOnUse" color-interpolation-filters="sRGB">
<feFlood flood-opacity="0" result="BackgroundImageFix"/>
<feBlend mode="normal" in="SourceGraphic" in2="BackgroundImageFix" result="shape"/>
<feGaussianBlur stdDeviation="1.24437" result="effect1_foregroundBlur_145_6877"/>
</filter>
<clipPath id="clip0_145_6877">
<rect width="120" height="120" fill="white"/>
</clipPath>
</defs>
</svg>
