<svg width="121" height="120" viewBox="0 0 121 120" fill="none" xmlns="http://www.w3.org/2000/svg">
<path d="M30.1629 65.5932L32.8523 75.6301L48.752 71.3698L77.6993 63.6134L72.6034 44.5949C71.6588 41.0698 67.5836 39.4516 64.4781 41.3685L31.7637 61.5619C30.3983 62.4047 29.7476 64.0434 30.1629 65.5932Z" fill="#1371FF" fill-opacity="0.5"/>
<g filter="url(#filter0_f_145_6876)">
<rect x="38.4883" y="53.675" width="15.0579" height="15.0579" fill="#12FFB4"/>
</g>
<rect x="38.4883" y="53.675" width="15.0579" height="15.0579" fill="#12FFB4"/>
<path fill-rule="evenodd" clip-rule="evenodd" d="M30.8294 68.0817L30.1024 65.3686C30.1024 65.3686 30.7767 67.9544 30.8294 68.0817Z" fill="#1371FF"/>
<path d="M79.3623 52.2662L69.6499 54.8419L37.2047 63.4655L30.1024 65.3686L30.8294 68.0817L40.1598 102.903C40.9387 105.81 43.9265 107.535 46.8333 106.756L48.6723 106.263L90.806 95.0718C93.64 94.319 95.3247 91.4084 94.5657 88.576L85.8419 56.0184C85.0855 53.1954 82.1872 51.5171 79.3623 52.2662Z" fill="#1371FF"/>
<path fill-rule="evenodd" clip-rule="evenodd" d="M30.8294 68.0817L30.1024 65.3686C30.1024 65.3686 30.7767 67.9544 30.8294 68.0817Z" fill="#1371FF"/>
<path d="M79.3623 52.2662L69.6499 54.8419L37.2047 63.4655L30.1024 65.3686L30.8294 68.0817L40.1598 102.903C40.9387 105.81 43.9265 107.535 46.8333 106.756L48.6723 106.263L90.806 95.0718C93.64 94.319 95.3247 91.4084 94.5657 88.576L85.8419 56.0184C85.0855 53.1954 82.1872 51.5171 79.3623 52.2662Z" fill="#1371FF"/>
<g style="mix-blend-mode:multiply" opacity="0.25">
<path fill-rule="evenodd" clip-rule="evenodd" d="M89.6992 70.4131L94.5658 88.5758C95.3248 91.4082 93.6402 94.3188 90.8061 95.0716L48.6724 106.263L46.8235 106.755C43.9189 107.528 40.937 105.803 40.1591 102.9L33.544 78.212C42.124 75.7375 52.3517 74.2861 64.2794 73.8214C74.7394 73.4138 83.0347 72.2496 89.6992 70.4131Z" fill="#1371FF"/>
</g>
<path d="M49.8387 68.4473C48.3174 68.8549 47.9102 69.5815 48.3286 71.143L53.3775 89.9858C53.425 90.1628 53.4757 90.3248 53.5317 90.473C53.5422 90.5007 53.5527 90.5306 53.5638 90.5624C53.6859 90.9123 53.887 91.4885 55.1207 91.7108C56.4599 91.9285 65.5281 93.18 65.5281 93.18C66.114 93.2635 66.2762 93.277 66.6706 93.1713C67.0239 93.0842 67.2401 92.9633 67.6595 92.6089C67.6595 92.6089 74.9216 87.0973 75.9432 86.1314C76.9649 85.1655 76.6374 83.943 76.5899 83.766L71.541 64.9233C71.1226 63.3617 70.4067 62.9361 68.8854 63.3437L49.8387 68.4473Z" fill="#E1DFF3"/>
<path fill-rule="evenodd" clip-rule="evenodd" d="M74.69 76.6759L76.5898 83.766C76.6372 83.943 76.9647 85.1655 75.9431 86.1314C74.9214 87.0973 67.6593 92.6089 67.6593 92.6089C67.24 92.9633 67.0237 93.0842 66.6704 93.1713C66.276 93.277 66.1138 93.2635 65.5279 93.18C65.5279 93.18 56.4598 91.9285 55.1205 91.7108C53.8868 91.4885 53.6857 90.9123 53.5636 90.5624C53.5525 90.5306 53.542 90.5007 53.5315 90.473C53.4755 90.3248 53.4248 90.1628 53.3774 89.9858L50.4736 79.1489C55.1126 78.1652 60.3768 77.5636 66.2813 77.3336C69.362 77.2135 72.1542 76.9926 74.69 76.6759Z" fill="#C0AAFF" fill-opacity="0.5"/>
<g filter="url(#filter1_f_145_6876)">
<rect x="50.4482" y="11.7397" width="8.81524" height="8.81524" fill="#F071F2"/>
</g>
<rect x="50.4482" y="11.7397" width="8.81524" height="8.81524" fill="#F071F2"/>
<g filter="url(#filter2_f_145_6876)">
<rect x="66.0547" y="23.408" width="6.04825" height="6.04825" fill="white"/>
</g>
<rect x="66.0547" y="23.408" width="6.04825" height="6.04825" fill="white"/>
<g opacity="0.5">
<g filter="url(#filter3_f_145_6876)">
<rect x="54.8564" y="35.1504" width="4.74635" height="4.74635" fill="#C0AAFF"/>
</g>
<rect x="54.8564" y="35.1504" width="4.74635" height="4.74635" fill="#C0AAFF"/>
</g>
<g filter="url(#filter4_f_145_6876)">
<rect x="35.1475" y="37.3901" width="7.5279" height="7.5279" fill="#D6F85F"/>
</g>
<rect x="35.1475" y="37.3901" width="7.5279" height="7.5279" fill="#D6F85F"/>
<defs>
<filter id="filter0_f_145_6876" x="31.8118" y="46.9986" width="28.4106" height="28.4109" filterUnits="userSpaceOnUse" color-interpolation-filters="sRGB">
<feFlood flood-opacity="0" result="BackgroundImageFix"/>
<feBlend mode="normal" in="SourceGraphic" in2="BackgroundImageFix" result="shape"/>
<feGaussianBlur stdDeviation="3.33825" result="effect1_foregroundBlur_145_6876"/>
</filter>
<filter id="filter1_f_145_6876" x="44.1588" y="5.45031" width="21.3943" height="21.3941" filterUnits="userSpaceOnUse" color-interpolation-filters="sRGB">
<feFlood flood-opacity="0" result="BackgroundImageFix"/>
<feBlend mode="normal" in="SourceGraphic" in2="BackgroundImageFix" result="shape"/>
<feGaussianBlur stdDeviation="3.14472" result="effect1_foregroundBlur_145_6876"/>
</filter>
<filter id="filter2_f_145_6876" x="59.3782" y="16.7315" width="19.4008" height="19.4013" filterUnits="userSpaceOnUse" color-interpolation-filters="sRGB">
<feFlood flood-opacity="0" result="BackgroundImageFix"/>
<feBlend mode="normal" in="SourceGraphic" in2="BackgroundImageFix" result="shape"/>
<feGaussianBlur stdDeviation="3.33825" result="effect1_foregroundBlur_145_6876"/>
</filter>
<filter id="filter3_f_145_6876" x="48.1799" y="28.4739" width="18.0991" height="18.0993" filterUnits="userSpaceOnUse" color-interpolation-filters="sRGB">
<feFlood flood-opacity="0" result="BackgroundImageFix"/>
<feBlend mode="normal" in="SourceGraphic" in2="BackgroundImageFix" result="shape"/>
<feGaussianBlur stdDeviation="3.33825" result="effect1_foregroundBlur_145_6876"/>
</filter>
<filter id="filter4_f_145_6876" x="28.858" y="31.1007" width="20.1072" height="20.1067" filterUnits="userSpaceOnUse" color-interpolation-filters="sRGB">
<feFlood flood-opacity="0" result="BackgroundImageFix"/>
<feBlend mode="normal" in="SourceGraphic" in2="BackgroundImageFix" result="shape"/>
<feGaussianBlur stdDeviation="3.14472" result="effect1_foregroundBlur_145_6876"/>
</filter>
</defs>
</svg>
