<svg width="120" height="120" viewBox="0 0 120 120" fill="none" xmlns="http://www.w3.org/2000/svg">
<g clip-path="url(#clip0_145_6878)">
<path d="M47.706 34.1057C45.0904 33.7346 43.9845 34.5881 43.6036 37.2728L39.0079 69.6685C38.9648 69.9727 38.9365 70.2561 38.9255 70.5217C38.9236 70.5713 38.92 70.6243 38.9162 70.6808C38.8747 71.3009 38.8062 72.3222 40.5638 73.4763C42.4873 74.6926 55.6579 82.585 55.6579 82.585C56.5071 83.0991 56.7484 83.2265 57.4266 83.3227C58.029 83.4204 58.4422 83.3761 59.3223 83.1048C59.3223 83.1048 74.1517 79.3738 76.3632 78.5548C78.5748 77.7359 78.8729 75.6342 78.9161 75.3299L83.5118 42.9342C83.8927 40.2495 83.0678 39.1222 80.4522 38.7511L47.706 34.1057Z" fill="#28E5AA"/>
<g style="mix-blend-mode:multiply" opacity="0.5">
<path fill-rule="evenodd" clip-rule="evenodd" d="M82.0371 52.442C66.0166 56.9642 51.158 63.9157 40.8402 73.708C43.7306 75.4942 55.5345 82.5675 55.5345 82.5675C56.3837 83.0816 56.625 83.209 57.3032 83.3052C57.9056 83.4029 58.3188 83.3586 59.1989 83.0874C59.1989 83.0874 74.0283 79.3563 76.2398 78.5374C78.4514 77.7185 78.7495 75.6167 78.7927 75.3125L82.0371 52.442Z" fill="#28E5AA"/>
</g>
<mask id="mask0_145_6878" style="mask-type:alpha" maskUnits="userSpaceOnUse" x="-1" y="-1" width="122" height="122">
<path d="M0.27832 0H120.278V120H0.27832V0Z" fill="#D9D9D9"/>
<path d="M0.27832 0V-0.685H-0.40668V0H0.27832ZM120.278 0H120.963V-0.685H120.278V0ZM120.278 120V120.685H120.963V120H120.278ZM0.27832 120H-0.40668V120.685H0.27832V120ZM0.27832 0.685H120.278V-0.685H0.27832V0.685ZM119.593 0V120H120.963V0H119.593ZM120.278 119.315H0.27832V120.685H120.278V119.315ZM0.96332 120V0H-0.40668V120H0.96332Z" fill="#C0AAFF"/>
</mask>
<g mask="url(#mask0_145_6878)">
<path fill-rule="evenodd" clip-rule="evenodd" d="M51.9168 80.3397C53.775 85.1625 55.7925 89.4032 57.8486 92.8641C59.9477 96.3975 62.0597 99.0716 64.0463 100.73C66.0523 102.404 67.7682 102.916 69.156 102.529C70.1528 102.25 71.0839 101.485 71.909 100.13C72.737 98.7693 73.4147 96.88 73.9054 94.5097C75.0891 88.7929 75.126 80.5795 73.8934 71.1347C73.2999 66.5869 72.4137 61.7662 71.2258 56.8184C69.3199 48.8802 66.8828 41.6371 64.2193 35.5951L65.8961 34.786C68.6084 40.9387 71.0789 48.2875 73.0076 56.3209C74.2102 61.33 75.1087 66.2154 75.711 70.8309C76.9573 80.3802 76.9433 88.8285 75.699 94.8383C75.1829 97.3311 74.4447 99.456 73.459 101.076C72.4704 102.7 71.1898 103.88 69.5879 104.328C67.3538 104.951 65.0389 104.009 62.857 102.188C60.6557 100.351 58.4227 97.488 56.2715 93.867C53.8389 89.7723 51.476 84.6484 49.3613 78.8043C50.2558 79.3421 51.1245 79.864 51.9168 80.3397Z" fill="url(#paint0_linear_145_6878)"/>
<path d="M57.7356 22.3663C60.2209 25.5189 62.7273 29.9041 65.0576 35.1902" stroke="url(#paint1_linear_145_6878)" stroke-width="1.85" stroke-linecap="round" stroke-dasharray="0.5 4"/>
</g>
<mask id="mask1_145_6878" style="mask-type:alpha" maskUnits="userSpaceOnUse" x="-1" y="-1" width="122" height="122">
<path d="M0.27832 0H120.278V120H0.27832V0Z" fill="#D9D9D9"/>
<path d="M0.27832 0V-0.685H-0.40668V0H0.27832ZM120.278 0H120.963V-0.685H120.278V0ZM120.278 120V120.685H120.963V120H120.278ZM0.27832 120H-0.40668V120.685H0.27832V120ZM0.27832 0.685H120.278V-0.685H0.27832V0.685ZM119.593 0V120H120.963V0H119.593ZM120.278 119.315H0.27832V120.685H120.278V119.315ZM0.96332 120V0H-0.40668V120H0.96332Z" fill="#C0AAFF"/>
</mask>
<g mask="url(#mask1_145_6878)">
<g filter="url(#filter0_f_145_6878)">
<path fill-rule="evenodd" clip-rule="evenodd" d="M80.5251 63.9914C84.5001 68.1489 87.8538 72.1404 90.4294 75.743C92.969 79.295 94.7206 82.4256 95.5818 84.9349C96.4658 87.5107 96.3103 89.1147 95.5892 89.9645C94.8682 90.8142 93.3108 91.2286 90.6255 90.7756C88.0095 90.3343 84.6356 89.1153 80.7177 87.1877C72.8949 83.3388 63.0937 76.7601 53.1887 68.3548C43.2836 59.9496 35.1976 51.3497 30.1271 44.2575C27.5875 40.7054 25.8359 37.5749 24.9747 35.0655C24.0907 32.4898 24.2462 30.8857 24.9673 30.036C25.6883 29.1862 27.2457 28.7718 29.931 29.2248C32.547 29.6662 35.9209 30.8851 39.8388 32.8128C41.253 33.5085 42.7318 34.2935 44.2642 35.1624C44.6677 34.521 45.2469 34.1687 46.0606 34.06C44.182 32.9705 42.3741 31.9983 40.6555 31.1528C36.6646 29.1892 33.1073 27.8846 30.2387 27.4006C27.4394 26.9283 24.9586 27.1869 23.5567 28.839C22.1548 30.4911 22.3033 32.9808 23.2249 35.666C24.1692 38.4176 26.0353 41.7152 28.6221 45.3334C33.8044 52.5818 42.0055 61.2913 51.9917 69.7654C61.9779 78.2395 71.9059 84.914 79.901 88.8477C83.8919 90.8112 87.4492 92.1159 90.3178 92.5998C93.1171 93.0721 95.5979 92.8135 96.9998 91.1615C98.4017 89.5094 98.2532 87.0196 97.3316 84.3344C96.3873 81.5828 94.5212 78.2853 91.9344 74.667C89.0853 70.682 85.3237 66.2553 80.8546 61.6689L80.5251 63.9914Z" fill="url(#paint2_linear_145_6878)"/>
</g>
<path fill-rule="evenodd" clip-rule="evenodd" d="M80.5251 63.9914C84.5001 68.1489 87.8538 72.1404 90.4294 75.743C92.969 79.295 94.7206 82.4256 95.5818 84.9349C96.4658 87.5107 96.3103 89.1147 95.5892 89.9645C94.8682 90.8142 93.3108 91.2286 90.6255 90.7756C88.0095 90.3343 84.6356 89.1153 80.7177 87.1877C72.8949 83.3388 63.0937 76.7601 53.1887 68.3548C43.2836 59.9496 35.1976 51.3497 30.1271 44.2575C27.5875 40.7054 25.8359 37.5749 24.9747 35.0655C24.0907 32.4898 24.2462 30.8857 24.9673 30.036C25.6883 29.1862 27.2457 28.7718 29.931 29.2248C32.547 29.6662 35.9209 30.8851 39.8388 32.8128C41.253 33.5085 42.7318 34.2935 44.2642 35.1624C44.6677 34.521 45.2469 34.1687 46.0606 34.06C44.182 32.9705 42.3741 31.9983 40.6555 31.1528C36.6646 29.1892 33.1073 27.8846 30.2387 27.4006C27.4394 26.9283 24.9586 27.1869 23.5567 28.839C22.1548 30.4911 22.3033 32.9808 23.2249 35.666C24.1692 38.4176 26.0353 41.7152 28.6221 45.3334C33.8044 52.5818 42.0055 61.2913 51.9917 69.7654C61.9779 78.2395 71.9059 84.914 79.901 88.8477C83.8919 90.8112 87.4492 92.1159 90.3178 92.5998C93.1171 93.0721 95.5979 92.8135 96.9998 91.1615C98.4017 89.5094 98.2532 87.0196 97.3316 84.3344C96.3873 81.5828 94.5212 78.2853 91.9344 74.667C89.0853 70.682 85.3237 66.2553 80.8546 61.6689L80.5251 63.9914Z" fill="url(#paint3_linear_145_6878)"/>
<path fill-rule="evenodd" clip-rule="evenodd" d="M95.6917 80.6377L93.5835 80.6377C94.4722 82.2139 95.143 83.6552 95.5821 84.9349C96.4661 87.5106 96.3106 89.1147 95.5895 89.9644C94.8685 90.8142 93.3111 91.2286 90.6258 90.7755C90.0542 90.6791 89.4463 90.5455 88.8045 90.3755L89.1496 92.3663C89.5506 92.4581 89.9403 92.536 90.3181 92.5998C93.1174 93.072 95.5982 92.8135 97.0001 91.1614C98.402 89.5093 98.2535 87.0196 97.332 84.3343C96.9396 83.191 96.388 81.9534 95.6917 80.6377Z" fill="#12FFB4" fill-opacity="0.5"/>
<path fill-rule="evenodd" clip-rule="evenodd" d="M35.3482 53.6651L36.8979 52.6231C34.2717 49.6867 31.9949 46.8697 30.1271 44.2573C29.6934 43.6506 29.2827 43.0563 28.8954 42.4752L26.8511 42.731C27.3961 43.5769 27.9875 44.4454 28.6222 45.3332C30.4909 47.947 32.7522 50.7508 35.3482 53.6651Z" fill="#D6F85F" fill-opacity="0.75"/>
</g>
<mask id="mask2_145_6878" style="mask-type:alpha" maskUnits="userSpaceOnUse" x="-1" y="-1" width="122" height="122">
<path d="M0.27832 0H120.278V120H0.27832V0Z" fill="#D9D9D9"/>
<path d="M0.27832 0V-0.685H-0.40668V0H0.27832ZM120.278 0H120.963V-0.685H120.278V0ZM120.278 120V120.685H120.963V120H120.278ZM0.27832 120H-0.40668V120.685H0.27832V120ZM0.27832 0.685H120.278V-0.685H0.27832V0.685ZM119.593 0V120H120.963V0H119.593ZM120.278 119.315H0.27832V120.685H120.278V119.315ZM0.96332 120V0H-0.40668V120H0.96332Z" fill="#9171FF"/>
</mask>
<g mask="url(#mask2_145_6878)">
<g filter="url(#filter1_f_145_6878)">
<path fill-rule="evenodd" clip-rule="evenodd" d="M100.112 48.8656C100.059 48.6776 99.8785 48.4059 99.3204 48.1203C98.7639 47.8354 97.9394 47.5956 96.8291 47.4305C94.615 47.1013 91.4837 47.0994 87.633 47.4306C79.9471 48.0917 69.5839 50.0625 58.3763 53.1955C47.1687 56.3285 37.2858 60.0173 30.3712 63.4376C26.9069 65.1512 24.2305 66.7766 22.5081 68.2062C21.6443 68.9232 21.0637 69.5557 20.7356 70.0879C20.4065 70.6215 20.3927 70.9476 20.4453 71.1356C20.4978 71.3236 20.6787 71.5953 21.2368 71.8809C21.7933 72.1658 22.6178 72.4056 23.7282 72.5707C25.9422 72.8999 29.0735 72.9018 32.9242 72.5706C34.8146 72.408 36.8669 72.1661 39.0539 71.8473C39.2458 72.3317 39.6671 72.8866 40.5649 73.4761C40.5709 73.4799 40.577 73.4838 40.5832 73.4877C37.8875 73.9068 35.372 74.2169 33.0827 74.4138C29.1745 74.75 25.8783 74.7607 23.4561 74.4006C22.2483 74.221 21.2024 73.9416 20.3939 73.5278C19.5869 73.1147 18.908 72.5082 18.6636 71.6337C18.4191 70.7591 18.6851 69.8885 19.1609 69.1169C19.6376 68.3437 20.387 67.5625 21.3266 66.7826C23.2109 65.2187 26.0349 63.5186 29.5509 61.7794C36.5969 58.2941 46.5945 54.5681 57.8783 51.4138C69.162 48.2596 79.6425 46.2611 87.4745 45.5874C91.3827 45.2512 94.6789 45.2405 97.1011 45.6006C98.3089 45.7802 99.3548 46.0596 100.163 46.4734C100.97 46.8865 101.649 47.493 101.894 48.3675C102.138 49.2421 101.872 50.1127 101.396 50.8843C100.92 51.6575 100.17 52.4387 99.2306 53.2186C97.3463 54.7825 94.5224 56.4826 91.0063 58.2218C88.0529 59.6827 84.5808 61.1859 80.7129 62.6716L81.0108 60.5718C84.4441 59.2273 87.5335 57.8757 90.1861 56.5636C93.6503 54.85 96.3267 53.2246 98.0491 51.795C98.9129 51.078 99.4935 50.4455 99.8216 49.9133C100.151 49.3797 100.165 49.0536 100.112 48.8656Z" fill="url(#paint4_linear_145_6878)"/>
</g>
<path fill-rule="evenodd" clip-rule="evenodd" d="M100.112 48.8656C100.059 48.6776 99.8785 48.4059 99.3204 48.1203C98.7639 47.8354 97.9394 47.5956 96.8291 47.4305C94.615 47.1013 91.4837 47.0994 87.633 47.4306C79.9471 48.0917 69.5839 50.0625 58.3763 53.1955C47.1687 56.3285 37.2858 60.0173 30.3712 63.4376C26.9069 65.1512 24.2305 66.7766 22.5081 68.2062C21.6443 68.9232 21.0637 69.5557 20.7356 70.0879C20.4065 70.6215 20.3927 70.9476 20.4453 71.1356C20.4978 71.3236 20.6787 71.5953 21.2368 71.8809C21.7933 72.1658 22.6178 72.4056 23.7282 72.5707C25.9422 72.8999 29.0735 72.9018 32.9242 72.5706C34.8146 72.408 36.8669 72.1661 39.0539 71.8473C39.2458 72.3317 39.6671 72.8866 40.5649 73.4761C40.5709 73.4799 40.577 73.4838 40.5832 73.4877C37.8875 73.9068 35.372 74.2169 33.0827 74.4138C29.1745 74.75 25.8783 74.7607 23.4561 74.4006C22.2483 74.221 21.2024 73.9416 20.3939 73.5278C19.5869 73.1147 18.908 72.5082 18.6636 71.6337C18.4191 70.7591 18.6851 69.8885 19.1609 69.1169C19.6376 68.3437 20.387 67.5625 21.3266 66.7826C23.2109 65.2187 26.0349 63.5186 29.5509 61.7794C36.5969 58.2941 46.5945 54.5681 57.8783 51.4138C69.162 48.2596 79.6425 46.2611 87.4745 45.5874C91.3827 45.2512 94.6789 45.2405 97.1011 45.6006C98.3089 45.7802 99.3548 46.0596 100.163 46.4734C100.97 46.8865 101.649 47.493 101.894 48.3675C102.138 49.2421 101.872 50.1127 101.396 50.8843C100.92 51.6575 100.17 52.4387 99.2306 53.2186C97.3463 54.7825 94.5224 56.4826 91.0063 58.2218C88.0529 59.6827 84.5808 61.1859 80.7129 62.6716L81.0108 60.5718C84.4441 59.2273 87.5335 57.8757 90.1861 56.5636C93.6503 54.85 96.3267 53.2246 98.0491 51.795C98.9129 51.078 99.4935 50.4455 99.8216 49.9133C100.151 49.3797 100.165 49.0536 100.112 48.8656Z" fill="url(#paint5_linear_145_6878)"/>
<path fill-rule="evenodd" clip-rule="evenodd" d="M82.8271 46.1016C84.4604 45.8848 86.0136 45.7131 87.4746 45.5874C89.3505 45.426 91.0855 45.3396 92.6504 45.3333L91.5174 47.2017C90.3229 47.2347 89.025 47.3109 87.6332 47.4306C86.0587 47.566 84.3719 47.7564 82.5885 48.0005L82.8271 46.1016Z" fill="#F071F2" fill-opacity="0.5"/>
</g>
<g filter="url(#filter2_f_145_6878)">
<rect x="52.6221" y="17.5254" width="6.6908" height="6.6908" fill="white"/>
</g>
<rect x="52.6221" y="17.5254" width="6.6908" height="6.6908" fill="white"/>
<g opacity="0.5">
<g filter="url(#filter3_f_145_6878)">
<rect x="72.7197" y="20.8706" width="5.67652" height="5.67652" fill="#9171FF"/>
</g>
<rect x="72.7197" y="20.8706" width="5.67652" height="5.67652" fill="#9171FF"/>
</g>
<g filter="url(#filter4_f_145_6878)">
<rect x="88.6113" y="41.1914" width="8.53687" height="8.53687" fill="#F071F2"/>
</g>
<rect x="88.6113" y="41.1914" width="8.53687" height="8.53687" fill="#F071F2"/>
<g filter="url(#filter5_f_145_6878)">
<rect x="90.876" y="75.6865" width="9.4944" height="9.4944" fill="#0AFFF0"/>
</g>
<rect x="90.876" y="75.6865" width="9.4944" height="9.4944" fill="#0AFFF0"/>
<g filter="url(#filter6_f_145_6878)">
<rect x="23.5391" y="39.2588" width="9.26032" height="9.26032" fill="#D6F85F"/>
</g>
<rect x="23.5391" y="39.2588" width="9.26032" height="9.26032" fill="#D6F85F"/>
<g filter="url(#filter7_f_145_6878)">
<rect x="37.4727" y="86.1543" width="7.72543" height="7.72543" fill="#3413FF"/>
</g>
<rect x="37.4727" y="86.1543" width="7.72543" height="7.72543" fill="#3413FF"/>
</g>
<defs>
<filter id="filter0_f_145_6878" x="20.5186" y="25.1902" width="79.5195" height="69.6201" filterUnits="userSpaceOnUse" color-interpolation-filters="sRGB">
<feFlood flood-opacity="0" result="BackgroundImageFix"/>
<feBlend mode="normal" in="SourceGraphic" in2="BackgroundImageFix" result="shape"/>
<feGaussianBlur stdDeviation="1" result="effect1_foregroundBlur_145_6878"/>
</filter>
<filter id="filter1_f_145_6878" x="14.5713" y="41.333" width="91.415" height="37.3352" filterUnits="userSpaceOnUse" color-interpolation-filters="sRGB">
<feFlood flood-opacity="0" result="BackgroundImageFix"/>
<feBlend mode="normal" in="SourceGraphic" in2="BackgroundImageFix" result="shape"/>
<feGaussianBlur stdDeviation="2" result="effect1_foregroundBlur_145_6878"/>
</filter>
<filter id="filter2_f_145_6878" x="46.3708" y="11.2741" width="19.193" height="19.1935" filterUnits="userSpaceOnUse" color-interpolation-filters="sRGB">
<feFlood flood-opacity="0" result="BackgroundImageFix"/>
<feBlend mode="normal" in="SourceGraphic" in2="BackgroundImageFix" result="shape"/>
<feGaussianBlur stdDeviation="3.12565" result="effect1_foregroundBlur_145_6878"/>
</filter>
<filter id="filter3_f_145_6878" x="66.4684" y="14.6193" width="18.1793" height="18.1791" filterUnits="userSpaceOnUse" color-interpolation-filters="sRGB">
<feFlood flood-opacity="0" result="BackgroundImageFix"/>
<feBlend mode="normal" in="SourceGraphic" in2="BackgroundImageFix" result="shape"/>
<feGaussianBlur stdDeviation="3.12565" result="effect1_foregroundBlur_145_6878"/>
</filter>
<filter id="filter4_f_145_6878" x="82.7224" y="35.3025" width="20.3149" height="20.3146" filterUnits="userSpaceOnUse" color-interpolation-filters="sRGB">
<feFlood flood-opacity="0" result="BackgroundImageFix"/>
<feBlend mode="normal" in="SourceGraphic" in2="BackgroundImageFix" result="shape"/>
<feGaussianBlur stdDeviation="2.94444" result="effect1_foregroundBlur_145_6878"/>
</filter>
<filter id="filter5_f_145_6878" x="84.6247" y="69.4352" width="21.9967" height="21.997" filterUnits="userSpaceOnUse" color-interpolation-filters="sRGB">
<feFlood flood-opacity="0" result="BackgroundImageFix"/>
<feBlend mode="normal" in="SourceGraphic" in2="BackgroundImageFix" result="shape"/>
<feGaussianBlur stdDeviation="3.12565" result="effect1_foregroundBlur_145_6878"/>
</filter>
<filter id="filter6_f_145_6878" x="17.6502" y="33.3699" width="21.0385" height="21.038" filterUnits="userSpaceOnUse" color-interpolation-filters="sRGB">
<feFlood flood-opacity="0" result="BackgroundImageFix"/>
<feBlend mode="normal" in="SourceGraphic" in2="BackgroundImageFix" result="shape"/>
<feGaussianBlur stdDeviation="2.94444" result="effect1_foregroundBlur_145_6878"/>
</filter>
<filter id="filter7_f_145_6878" x="33.5378" y="82.2195" width="15.5952" height="15.595" filterUnits="userSpaceOnUse" color-interpolation-filters="sRGB">
<feFlood flood-opacity="0" result="BackgroundImageFix"/>
<feBlend mode="normal" in="SourceGraphic" in2="BackgroundImageFix" result="shape"/>
<feGaussianBlur stdDeviation="1.9674" result="effect1_foregroundBlur_145_6878"/>
</filter>
<linearGradient id="paint0_linear_145_6878" x1="69.8226" y1="56.7243" x2="36.3436" y2="76.0367" gradientUnits="userSpaceOnUse">
<stop offset="0.515625" stop-color="#D4CAF2"/>
<stop offset="1" stop-color="#8460EA" stop-opacity="0"/>
</linearGradient>
<linearGradient id="paint1_linear_145_6878" x1="64.2957" y1="34.5549" x2="58.974" y2="22.6532" gradientUnits="userSpaceOnUse">
<stop offset="0.988699" stop-color="#D4CAF2"/>
<stop offset="0.988799" stop-color="#D9D7EB" stop-opacity="0"/>
</linearGradient>
<linearGradient id="paint2_linear_145_6878" x1="69.707" y1="66.7834" x2="77.992" y2="55.6015" gradientUnits="userSpaceOnUse">
<stop stop-color="#D4CAF2"/>
<stop offset="1" stop-color="#835FEA" stop-opacity="0"/>
</linearGradient>
<linearGradient id="paint3_linear_145_6878" x1="69.707" y1="66.7834" x2="77.992" y2="55.6015" gradientUnits="userSpaceOnUse">
<stop stop-color="#D4CAF2"/>
<stop offset="1" stop-color="#835FEA" stop-opacity="0"/>
</linearGradient>
<linearGradient id="paint4_linear_145_6878" x1="55.6594" y1="57.9746" x2="60.3882" y2="73.2847" gradientUnits="userSpaceOnUse">
<stop stop-color="#C0AAFF"/>
<stop offset="1" stop-color="#835FEA" stop-opacity="0"/>
</linearGradient>
<linearGradient id="paint5_linear_145_6878" x1="55.6594" y1="57.9746" x2="60.3882" y2="73.2847" gradientUnits="userSpaceOnUse">
<stop stop-color="#EBE3FF"/>
<stop offset="1" stop-color="#835FEA" stop-opacity="0"/>
</linearGradient>
<clipPath id="clip0_145_6878">
<rect width="120" height="120" fill="white"/>
</clipPath>
</defs>
</svg>
