<svg width="684" height="513" viewBox="0 0 684 513" fill="none" xmlns="http://www.w3.org/2000/svg">
<path d="M335.22 199.293V183.016C335.22 180.425 334.004 179.224 331.483 179.224H327.373V203.085H331.483C334.008 203.085 335.22 201.884 335.22 199.293Z" fill="white"/>
<path d="M401.834 132H282.372C272.574 132 269 135.562 269 145.216V262.888C269 264.403 269.272 267.126 269.765 268.292C270.259 269.457 270.717 270.413 271.63 271.264C272.574 272.142 274.206 273.055 274.99 273.412L338.317 300.058C339.483 300.552 340.761 300.823 342.101 300.823C343.445 300.823 344.723 300.552 345.885 300.058L409.216 273.408C410 273.051 411.632 272.138 412.576 271.26C413.489 270.409 413.947 269.457 414.441 268.288C414.934 267.119 415.206 264.399 415.206 262.884V145.216C415.206 135.562 411.632 132 401.834 132ZM349.731 170.534H359.73V235.267H349.731V170.534ZM312.545 235.267H290.118V170.534H312.359V179.504H300.118V197.817H311.893V206.787H300.118V226.301H312.545V235.267ZM317.374 170.534H333.073C341.204 170.534 345.221 174.508 345.221 182.557V199.759C345.221 207.805 341.204 211.779 333.073 211.779H327.374V235.267H317.374V170.534ZM366.238 274.713C366.21 274.776 366.171 274.83 366.125 274.877C366.078 274.923 366.024 274.962 365.962 274.989L342.855 284.713C342.606 284.818 342.334 284.876 342.051 284.876C341.767 284.876 341.491 284.818 341.246 284.713L318.318 274.989C318.256 274.962 318.201 274.923 318.155 274.877C318.108 274.83 318.069 274.776 318.042 274.713C318.015 274.651 318.003 274.585 318.003 274.511C318.003 274.438 318.019 274.372 318.042 274.309C318.069 274.247 318.108 274.193 318.155 274.146C318.201 274.1 318.256 274.061 318.318 274.034C318.38 274.006 318.446 273.995 318.52 273.995H365.76C365.83 273.995 365.9 274.01 365.962 274.034C366.024 274.061 366.078 274.096 366.125 274.146C366.171 274.193 366.21 274.247 366.238 274.309C366.265 274.372 366.276 274.438 366.276 274.511C366.276 274.585 366.261 274.651 366.238 274.713ZM394.267 223.799C394.267 231.844 390.25 235.822 382.119 235.822H377.166C369.035 235.822 365.014 231.848 365.014 223.799V181.998C365.014 173.952 369.035 169.974 377.162 169.974H382.022C390.153 169.974 394.076 173.859 394.076 181.905V195.129H384.267V182.456C384.267 179.865 383.051 178.665 380.53 178.665H378.848C376.229 178.665 375.017 179.865 375.017 182.456V223.333C375.017 225.924 376.233 227.124 378.848 227.124H380.716C383.238 227.124 384.454 225.924 384.454 223.333V208.726H394.267V223.799Z" fill="white"/>
<path d="M293.126 393.376C292.772 392.762 292.31 392.257 291.739 391.849C291.164 391.445 290.433 391.06 289.548 390.695L286.067 389.289C285.675 389.133 285.348 388.97 285.088 388.799C284.828 388.628 284.633 388.442 284.501 388.232C284.369 388.022 284.28 387.77 284.226 387.471C284.175 387.172 284.148 386.799 284.148 386.356C284.148 385.443 284.303 384.779 284.618 384.363C284.773 384.153 284.983 383.978 285.243 383.835C285.504 383.691 285.83 383.621 286.222 383.621C286.638 383.621 286.972 383.687 287.221 383.815C287.469 383.947 287.671 384.114 287.827 384.324C288.06 384.635 288.2 385.008 288.239 385.439C288.277 385.87 288.297 386.332 288.297 386.826H293.848C293.848 385.42 293.677 384.169 293.339 383.073C293.001 381.978 292.454 381.08 291.696 380.373C290.445 379.2 288.619 378.613 286.222 378.613C285.154 378.613 284.202 378.765 283.367 379.064C282.532 379.363 281.778 379.802 281.098 380.373C280.263 381.103 279.638 381.989 279.222 383.03C278.806 384.071 278.596 385.249 278.596 386.55C278.596 387.646 278.674 388.57 278.829 389.328C278.985 390.085 279.222 390.722 279.533 391.243C279.847 391.763 280.255 392.206 280.764 392.572C281.273 392.937 281.879 393.263 282.582 393.55L286.102 394.996C286.595 395.205 287.003 395.4 287.314 395.582C287.629 395.765 287.873 395.994 288.056 396.266C288.239 396.542 288.363 396.891 288.429 397.323C288.495 397.754 288.526 398.294 288.526 398.947C288.526 400.069 288.343 400.85 287.978 401.293C287.613 401.763 287.026 401.996 286.218 401.996C285.776 401.996 285.418 401.93 285.142 401.802C284.867 401.67 284.653 401.514 284.497 401.332C284.237 401.044 284.074 400.695 284.008 400.275C283.942 399.859 283.911 399.362 283.911 398.787H278.363C278.363 400.221 278.499 401.441 278.775 402.443C279.051 403.445 279.525 404.288 280.201 404.964C280.826 405.59 281.642 406.087 282.644 406.452C283.647 406.817 284.839 407 286.222 407C287.578 407 288.771 406.806 289.8 406.413C290.83 406.021 291.657 405.527 292.283 404.929C293.013 404.226 293.495 403.371 293.728 402.369C293.961 401.367 294.081 400.159 294.081 398.752C294.081 397.501 294.008 396.445 293.868 395.586C293.724 394.728 293.475 393.989 293.126 393.376Z" fill="white"/>
<path d="M296.621 406.693H309.445V401.685H302.173V395.038H308.431V390.035H302.173V383.854H309.445V378.85H296.621V406.693Z" fill="white"/>
<path d="M326.178 393.22C326.594 392.688 326.916 392.105 327.137 391.48C327.359 390.854 327.51 390.198 327.588 389.506C327.666 388.815 327.705 388.092 327.705 387.335C327.705 386.006 327.588 384.813 327.351 383.757C327.118 382.7 326.706 381.814 326.12 381.099C325.533 380.385 324.737 379.829 323.734 379.437C322.732 379.044 321.473 378.85 319.962 378.85H312.025V406.693H317.577V395.862H319.414L322.817 406.693H328.606L324.538 394.65C325.214 394.23 325.762 393.756 326.178 393.22ZM322.095 388.547C322.056 388.962 321.963 389.343 321.819 389.681C321.675 390.019 321.454 390.299 321.155 390.52C320.856 390.742 320.444 390.854 319.923 390.854H317.577V383.854H319.923C320.444 383.854 320.856 383.959 321.155 384.165C321.454 384.374 321.675 384.646 321.819 384.984C321.963 385.322 322.052 385.703 322.095 386.119C322.134 386.534 322.153 386.938 322.153 387.331C322.153 387.727 322.134 388.131 322.095 388.547Z" fill="white"/>
<path d="M337.848 398.519L334.837 378.85H328.738L334.954 406.693H340.742L347.001 378.85H340.898L337.848 398.519Z" fill="white"/>
<path d="M354.391 378.85H348.84V406.693H354.391V378.85Z" fill="white"/>
<path d="M362.787 387.921C362.838 387.191 362.915 386.538 363.02 385.967C363.125 385.392 363.253 384.95 363.413 384.639C363.568 384.328 363.789 384.068 364.077 383.858C364.364 383.648 364.768 383.543 365.289 383.543C365.81 383.543 366.214 383.636 366.501 383.819C366.788 384.002 367.01 384.262 367.165 384.6C367.321 384.887 367.426 385.218 367.476 385.598C367.527 385.975 367.565 386.36 367.593 386.752H373.144C373.094 385.423 372.845 384.223 372.402 383.155C371.959 382.086 371.373 381.212 370.642 380.536C369.939 379.86 369.162 379.355 368.315 379.029C367.468 378.703 366.458 378.54 365.285 378.54C363.774 378.54 362.535 378.815 361.571 379.359C360.608 379.907 359.811 380.571 359.186 381.352C358.689 381.95 358.308 382.63 358.032 383.384C357.756 384.142 357.55 384.992 357.407 385.944C357.263 386.896 357.177 387.937 357.154 389.071C357.127 390.206 357.115 391.437 357.115 392.766C357.115 394.094 357.127 395.326 357.154 396.46C357.181 397.595 357.267 398.636 357.407 399.588C357.55 400.539 357.76 401.394 358.032 402.148C358.304 402.905 358.689 403.581 359.186 404.179C359.811 404.96 360.608 405.625 361.571 406.172C362.535 406.72 363.774 406.992 365.285 406.992C366.458 406.992 367.468 406.829 368.315 406.503C369.162 406.176 369.939 405.675 370.642 404.995C371.373 404.319 371.959 403.437 372.402 402.357C372.845 401.278 373.094 400.069 373.144 398.741H367.597C367.569 399.133 367.53 399.518 367.48 399.895C367.429 400.271 367.325 400.605 367.169 400.893C367.014 401.231 366.792 401.499 366.505 401.693C366.217 401.887 365.813 401.985 365.293 401.985C364.772 401.985 364.368 401.88 364.081 401.67C363.793 401.46 363.572 401.2 363.416 400.889C363.261 400.574 363.129 400.131 363.024 399.56C362.919 398.985 362.841 398.337 362.791 397.606C362.74 396.876 362.706 396.095 362.694 395.26C362.678 394.425 362.674 393.593 362.674 392.758C362.674 391.923 362.682 391.091 362.694 390.256C362.702 389.437 362.737 388.652 362.787 387.921Z" fill="white"/>
<path d="M375.449 406.693H388.277V401.685H381.005V395.038H387.259V390.035H381.005V383.854H388.277V378.85H375.449V406.693Z" fill="white"/>
<path d="M404.885 393.376C404.532 392.762 404.07 392.257 403.499 391.849C402.924 391.445 402.193 391.06 401.307 390.695L397.827 389.289C397.434 389.133 397.108 388.97 396.848 388.799C396.587 388.628 396.393 388.442 396.261 388.232C396.129 388.022 396.04 387.77 395.985 387.471C395.935 387.172 395.908 386.799 395.908 386.356C395.908 385.443 396.063 384.779 396.378 384.363C396.533 384.153 396.743 383.978 397.003 383.835C397.263 383.691 397.59 383.621 397.982 383.621C398.398 383.621 398.732 383.687 398.98 383.815C399.229 383.947 399.431 384.114 399.587 384.324C399.82 384.635 399.959 385.008 399.998 385.439C400.037 385.87 400.057 386.332 400.057 386.826H405.608C405.608 385.42 405.437 384.169 405.099 383.073C404.761 381.978 404.213 381.08 403.456 380.373C402.205 379.2 400.379 378.613 397.982 378.613C396.914 378.613 395.962 378.765 395.127 379.064C394.291 379.363 393.538 379.802 392.858 380.373C392.023 381.103 391.397 381.989 390.982 383.03C390.566 384.071 390.356 385.249 390.356 386.55C390.356 387.646 390.434 388.57 390.589 389.328C390.745 390.085 390.982 390.722 391.292 391.243C391.607 391.763 392.015 392.206 392.524 392.572C393.033 392.937 393.639 393.263 394.342 393.55L397.862 394.996C398.355 395.205 398.759 395.4 399.074 395.582C399.388 395.765 399.633 395.994 399.816 396.266C399.998 396.542 400.123 396.891 400.189 397.323C400.255 397.754 400.286 398.294 400.286 398.947C400.286 400.069 400.103 400.85 399.738 401.293C399.373 401.763 398.786 401.996 397.978 401.996C397.535 401.996 397.178 401.93 396.902 401.802C396.63 401.67 396.413 401.514 396.257 401.332C395.997 401.044 395.834 400.695 395.768 400.275C395.702 399.859 395.671 399.362 395.671 398.787H390.119C390.119 400.221 390.255 401.441 390.531 402.443C390.803 403.445 391.281 404.288 391.957 404.964C392.582 405.59 393.398 406.087 394.4 406.452C395.403 406.817 396.595 407 397.978 407C399.334 407 400.527 406.806 401.556 406.413C402.586 406.021 403.413 405.527 404.039 404.929C404.769 404.226 405.251 403.371 405.484 402.369C405.717 401.367 405.837 400.159 405.837 398.752C405.837 397.501 405.763 396.445 405.624 395.586C405.484 394.728 405.239 393.989 404.885 393.376Z" fill="white"/>
<path d="M295.239 338.674C295.044 337.248 294.741 335.966 294.33 334.831C293.918 333.697 293.343 332.683 292.601 331.782C291.661 330.609 290.468 329.61 289.023 328.791C287.574 327.971 285.717 327.559 283.452 327.559C281.183 327.559 279.326 327.971 277.881 328.791C276.436 329.61 275.243 330.609 274.303 331.782C273.561 332.683 272.982 333.697 272.574 334.831C272.163 335.966 271.852 337.248 271.634 338.674C271.421 340.103 271.292 341.665 271.254 343.366C271.215 345.068 271.195 346.917 271.195 348.91C271.195 350.903 271.215 352.752 271.254 354.454C271.292 356.155 271.421 357.721 271.634 359.147C271.848 360.572 272.163 361.854 272.574 362.989C272.986 364.123 273.561 365.141 274.303 366.038C275.243 367.212 276.436 368.21 277.881 369.03C279.326 369.849 281.183 370.261 283.452 370.261C285.721 370.261 287.578 369.849 289.023 369.03C290.468 368.21 291.661 367.212 292.601 366.038C293.343 365.141 293.922 364.123 294.33 362.989C294.741 361.854 295.044 360.576 295.239 359.147C295.433 357.721 295.561 356.155 295.619 354.454C295.678 352.752 295.709 350.907 295.709 348.91C295.709 346.917 295.678 345.068 295.619 343.366C295.561 341.665 295.433 340.103 295.239 338.674ZM287.348 352.663C287.329 353.914 287.279 355.087 287.201 356.183C287.123 357.278 287.007 358.257 286.847 359.116C286.692 359.978 286.494 360.642 286.261 361.109C286.028 361.575 285.694 361.971 285.262 362.282C284.831 362.596 284.225 362.752 283.444 362.752C282.663 362.752 282.057 362.596 281.626 362.282C281.195 361.971 280.865 361.579 280.628 361.109C280.391 360.638 280.196 359.974 280.041 359.116C279.886 358.257 279.765 357.278 279.688 356.183C279.61 355.087 279.559 353.914 279.54 352.663C279.521 351.412 279.509 350.161 279.509 348.91C279.509 347.659 279.517 346.408 279.54 345.157C279.559 343.906 279.606 342.733 279.688 341.638C279.765 340.542 279.882 339.567 280.041 338.705C280.196 337.846 280.395 337.178 280.628 336.712C280.861 336.246 281.195 335.853 281.626 335.539C282.057 335.228 282.663 335.068 283.444 335.068C284.225 335.068 284.831 335.224 285.262 335.539C285.694 335.853 286.024 336.242 286.261 336.712C286.498 337.182 286.692 337.846 286.847 338.705C287.003 339.563 287.119 340.542 287.201 341.638C287.279 342.733 287.329 343.906 287.348 345.157C287.368 346.408 287.38 347.659 287.38 348.91C287.38 350.161 287.368 351.412 287.348 352.663Z" fill="white"/>
<path d="M316.815 369.791H323.913V328.029H315.584V348.44L306.901 328.029H299.629V369.791H307.958V349.38L316.815 369.791Z" fill="white"/>
<path d="M337.144 328.029H328.814V369.791H348.052V362.286H337.144V328.029Z" fill="white"/>
<path d="M359.673 328.029H351.344V369.791H359.673V328.029Z" fill="white"/>
<path d="M380.541 348.44L371.862 328.029H364.586V369.791H372.915V349.38L381.772 369.791H388.87V328.029H380.541V348.44Z" fill="white"/>
<path d="M393.777 369.791H413.015V362.286H402.106V352.313H411.488V344.804H402.106V335.535H413.015V328.029H393.777V369.791Z" fill="white"/>
</svg>
