<svg width="121" height="121" viewBox="0 0 121 121" fill="none" xmlns="http://www.w3.org/2000/svg">
<g opacity="0.5" filter="url(#filter0_f_145_6874)">
<rect x="81.5146" y="23.5378" width="7.70323" height="7.70323" fill="white"/>
</g>
<rect x="81.5146" y="23.5378" width="7.70323" height="7.70323" fill="white"/>
<g filter="url(#filter1_f_145_6874)">
<rect x="74.1689" y="19.2729" width="4.06299" height="4.06299" fill="#0AFFF0"/>
</g>
<rect x="74.1689" y="19.2729" width="4.06299" height="4.06299" fill="#0AFFF0"/>
<g filter="url(#filter2_f_145_6874)">
<rect x="97.0273" y="53.3564" width="6.30841" height="6.30841" fill="#F071F2"/>
</g>
<rect x="97.0273" y="53.3564" width="6.30841" height="6.30841" fill="#F071F2"/>
<g filter="url(#filter3_f_145_6874)">
<rect x="38.8691" y="70.2078" width="9.74387" height="9.74387" fill="white"/>
</g>
<rect x="38.8691" y="70.2078" width="9.74387" height="9.74387" fill="white"/>
<g filter="url(#filter4_f_145_6874)">
<rect x="24.5107" y="61.5789" width="4.23463" height="4.23463" fill="#D6F85F"/>
</g>
<rect x="24.5107" y="61.5789" width="4.23463" height="4.23463" fill="#D6F85F"/>
<path d="M36.5479 61.3228C41.7346 51.2334 47.7689 41.6994 50.1377 38.1936" stroke="#C0AAFF" stroke-width="1.37382"/>
<path d="M36.5479 61.3228C41.7346 51.2334 47.7689 41.6994 50.1377 38.1936" stroke="#C0AAFF" stroke-width="1.37382"/>
<g style="mix-blend-mode:multiply">
<path d="M36.5479 61.3228C41.7346 51.2334 47.7689 41.6994 50.1377 38.1936" stroke="#C0AAFF" stroke-width="1.37382"/>
</g>
<path d="M46.8018 42.7708C62.8321 13.2297 52.6151 11.0247 35.6813 28.1617C34.026 29.837 30.0149 33.5418 30.0149 33.5418" stroke="#C0AAFF" stroke-width="1.37382"/>
<path d="M35.7658 25.9387C36.2953 25.4265 37.1398 25.4405 37.652 25.9701V25.9701C38.1642 26.4996 38.1502 27.3441 37.6206 27.8563L34.1218 31.2405L32.267 29.3229L35.7658 25.9387Z" fill="#C0AAFF"/>
<g style="mix-blend-mode:multiply">
<path d="M35.7658 25.9396C36.2952 25.4269 37.1401 25.4408 37.6525 25.9705V25.9705C38.1645 26.4999 38.1507 27.344 37.6215 27.8563L33.3709 31.9717L31.5161 30.054L35.7658 25.9396Z" fill="#C0AAFF"/>
</g>
<g style="mix-blend-mode:multiply">
<path fill-rule="evenodd" clip-rule="evenodd" d="M11.1288 50.5892L12.1646 51.6601C16.1502 55.7806 22.7214 55.89 26.8419 51.9045L35.4209 43.6064C39.5414 39.6209 39.6509 33.0497 35.6653 28.9292L34.6295 27.8583C30.644 23.7378 24.0728 23.6284 19.9523 27.6139L11.3732 35.912C7.25271 39.8975 7.14329 46.4687 11.1288 50.5892Z" fill="#C0AAFF"/>
</g>
<path fill-rule="evenodd" clip-rule="evenodd" d="M34.9056 27.5911C35.0439 27.7341 35.0401 27.9622 34.8971 28.1005L28.3238 34.4585C28.2396 34.5399 28.1054 34.5377 28.0239 34.4535V34.4535C27.9425 34.3693 27.8083 34.3671 27.7241 34.4485L27.6002 34.5683C27.4476 34.7159 27.4435 34.9593 27.5911 35.1119L28.1809 35.7216C28.3285 35.8743 28.5719 35.8783 28.7245 35.7307L28.8484 35.6109C28.9326 35.5294 28.9348 35.3952 28.8534 35.311V35.311C28.7719 35.2268 28.7742 35.0925 28.8584 35.0111L35.4312 28.6535C35.5745 28.515 35.8029 28.5188 35.9414 28.662V28.662C40.0745 32.9351 39.9611 39.7497 35.688 43.8829L27.1089 52.1809C22.8358 56.3141 16.0212 56.2006 11.888 51.9275L10.8522 50.8566C6.71909 46.5835 6.83256 39.7689 11.1057 35.6358L19.6847 27.3377C23.9578 23.2046 30.7724 23.318 34.9056 27.5911V27.5911Z" fill="#D9D7EB"/>
<g style="mix-blend-mode:multiply" opacity="0.25">
<path fill-rule="evenodd" clip-rule="evenodd" d="M38.9674 36.0014C39.0051 38.8638 37.9078 41.7349 35.6878 43.8822L33.6842 45.8202C33.8062 43.0166 31.9905 39.1179 28.7245 35.7305L28.8482 35.6107C28.9324 35.5293 28.9347 35.3951 28.8532 35.3109C28.8512 35.3088 28.8493 35.3067 28.8473 35.3045C28.772 35.2201 28.7761 35.0904 28.8582 35.011L29.2586 34.6238L35.4311 28.6534C35.5743 28.5149 35.8027 28.5187 35.9413 28.6619C37.9033 30.6904 38.9084 33.2917 38.9658 35.9069C38.9665 35.9384 38.967 35.9699 38.9674 36.0014Z" fill="#C0AAFF"/>
</g>
<g style="mix-blend-mode:multiply" opacity="0.35">
<path fill-rule="evenodd" clip-rule="evenodd" d="M28.3214 34.4607C28.2388 34.5383 28.1098 34.537 28.0287 34.4583L27.8766 34.3009L27.6002 34.5682C24.3235 31.1913 20.4877 29.2469 17.6816 29.2752L19.6847 27.3377C23.9578 23.2046 30.7724 23.318 34.9056 27.5911C35.043 27.7332 35.0401 27.9592 34.8999 28.0977L28.3214 34.4607ZM27.5848 35.1053L27.3239 34.8355L27.6002 34.5682C27.6002 34.5682 27.6002 34.5683 27.6002 34.5683L27.6002 34.5683C27.4498 34.7138 27.4437 34.9523 27.5848 35.1053Z" fill="#C0AAFF"/>
</g>
<g style="mix-blend-mode:multiply">
<path fill-rule="evenodd" clip-rule="evenodd" d="M9.86153 37.0686C10.2271 36.5637 10.6418 36.0837 11.1054 35.6353L14.835 32.0278C15.3554 32.9559 15.2094 34.1526 14.4087 34.9272L12.6224 36.6549C11.8652 37.3873 10.7502 37.522 9.86153 37.0686ZM30.8381 48.573L27.1086 52.1804C26.645 52.6288 26.1515 53.0273 25.6347 53.3758C25.2113 52.4725 25.383 51.3628 26.1401 50.6304L27.9264 48.9027C28.7271 48.1282 29.9279 48.0221 30.8381 48.573Z" fill="#C0AAFF"/>
</g>
<path d="M30.1309 31.2274C30.7065 30.6706 31.6246 30.6859 32.1814 31.2615C32.7382 31.8372 32.723 32.7553 32.1473 33.3121L29.7025 35.6768C29.1268 36.2336 28.2088 36.2183 27.652 35.6426C27.0951 35.067 27.1104 34.1489 27.6861 33.5921L30.1309 31.2274Z" fill="#D9D7EB"/>
<path fill-rule="evenodd" clip-rule="evenodd" d="M29.7307 30.8132C30.5352 30.0349 31.8184 30.0563 32.5966 30.8609C33.3749 31.6655 33.3535 32.9486 32.5489 33.7269L30.1042 36.0915C29.2996 36.8698 28.0164 36.8484 27.2382 36.0438C26.4599 35.2392 26.4813 33.9561 27.2859 33.1779L29.7307 30.8132ZM32.1821 31.2618C31.6253 30.6861 30.7072 30.6708 30.1316 31.2277L27.6868 33.5923C27.1111 34.1492 27.0959 35.0672 27.6527 35.6429C28.2095 36.2186 29.1276 36.2339 29.7032 35.677L32.148 33.3124C32.7237 32.7556 32.739 31.8375 32.1821 31.2618Z" fill="#9171FF"/>
<path d="M30.925 34.4946L29.7025 35.677C29.1268 36.2338 28.2088 36.2186 27.652 35.6429C27.0951 35.0672 27.1104 34.1491 27.6861 33.5923L28.9085 32.4099L30.925 34.4946Z" fill="#C0AAFF"/>
<g style="mix-blend-mode:multiply">
<path fill-rule="evenodd" clip-rule="evenodd" d="M12.5102 49.2526L13.546 50.3235C16.7935 53.6809 22.1478 53.7701 25.5052 50.5226L34.0843 42.2245C37.4418 38.9771 37.5309 33.6227 34.2835 30.2653L33.2476 29.1944C30.0002 25.837 24.6458 25.7478 21.2884 28.9953L12.7093 37.2933C9.35189 40.5408 9.26274 45.8951 12.5102 49.2526ZM10.8522 50.8561L11.888 51.927C16.0212 56.2001 22.8358 56.3136 27.1089 52.1805L35.688 43.8824C39.9611 39.7493 40.0745 32.9346 35.9414 28.6615L34.9056 27.5906C30.7724 23.3175 23.9578 23.2041 19.6847 27.3372L11.1057 35.6353C6.83256 39.7684 6.71909 46.583 10.8522 50.8561Z" fill="url(#paint0_linear_145_6874)"/>
</g>
<path fill-rule="evenodd" clip-rule="evenodd" d="M18.8608 37.2122C19.2652 37.6303 20.3093 37.2763 21.1929 36.4216C22.0765 35.567 22.465 34.5352 22.0607 34.1172C21.6563 33.6991 20.6122 34.0531 19.7286 34.9078C18.845 35.7625 18.4565 36.7942 18.8608 37.2122ZM25.8162 44.4032C26.2205 44.8212 27.2646 44.4673 28.1482 43.6126C29.0318 42.7579 29.4204 41.7262 29.016 41.3081C28.6117 40.8901 27.5676 41.2441 26.6839 42.0987C25.8003 42.9534 25.4118 43.9851 25.8162 44.4032Z" fill="#272727"/>
<path d="M21.812 36.106C21.5482 36.3611 21.1275 36.3541 20.8724 36.0903C20.6173 35.8265 20.6243 35.4059 20.8881 35.1507C21.1518 34.8956 21.5725 34.9026 21.8276 35.1664C22.0828 35.4302 22.0758 35.8508 21.812 36.106Z" fill="white"/>
<path d="M28.7811 43.311C28.5174 43.5662 28.0967 43.5592 27.8416 43.2954C27.5864 43.0316 27.5934 42.6109 27.8572 42.3558C28.121 42.1007 28.5416 42.1077 28.7968 42.3714C29.0519 42.6352 29.0449 43.0559 28.7811 43.311Z" fill="white"/>
<path d="M23.8209 47.047C21.6242 49.1718 18.121 49.1134 15.9963 46.9168C13.8716 44.7201 13.9299 41.2169 16.1266 39.0922C16.1266 39.0922 16.1631 38.4918 20.2927 42.7612C24.4222 47.0306 23.8209 47.047 23.8209 47.047Z" fill="#272727"/>
<path fill-rule="evenodd" clip-rule="evenodd" d="M20.4121 48.586C18.8227 48.7113 17.1917 48.1522 15.9967 46.9168C14.8017 45.6813 14.2972 44.0326 14.4754 42.4482C15.902 42.5405 17.3928 43.2147 18.568 44.4297C19.7431 45.6447 20.3674 47.1571 20.4121 48.586Z" fill="#C0AAFF"/>
<path fill-rule="evenodd" clip-rule="evenodd" d="M20.4121 48.586C18.8227 48.7113 17.1917 48.1522 15.9967 46.9168C14.8017 45.6813 14.2972 44.0326 14.4754 42.4482C15.902 42.5405 17.3928 43.2147 18.568 44.4297C19.7431 45.6447 20.3674 47.1571 20.4121 48.586Z" fill="#C0AAFF"/>
<path fill-rule="evenodd" clip-rule="evenodd" d="M78.0109 36.4574L78.0109 36.4577V38.1309L86.4566 38.1309C89.607 38.1309 92.2909 41.0133 91.3474 44.3443C90.1556 48.5521 87.7881 53.9949 83.137 58.3982C81.1703 60.26 78.8176 61.9145 76.0136 63.2083C74.6987 66.0977 72.7657 68.7054 70.3074 70.8284C68.9179 72.0284 67.3427 72.8955 65.6848 73.4298C64.8856 74.4396 64.269 75.7992 64.269 77.8896C64.269 81.0481 66.013 84.0932 67.617 85.8751C68.1421 86.4584 68.8489 86.8265 69.5624 87.1536C71.5483 88.0638 72.8102 89.3116 72.9126 90.6956C74.3944 91.7069 75.26 92.927 75.26 94.2408C75.26 97.7345 69.1379 100.567 61.5859 100.567C54.0338 100.567 47.9117 97.7345 47.9117 94.2408C47.9117 92.9271 48.7773 91.7069 50.259 90.6957C50.3614 89.3117 51.6233 88.0639 53.6092 87.1536C54.3228 86.8265 55.0296 86.4584 55.5547 85.875C57.1586 84.0932 58.9026 81.0481 58.9026 77.8896C58.9026 75.7992 58.2859 74.4396 57.4868 73.4298C55.8289 72.8955 54.2537 72.0284 52.8643 70.8284C50.406 68.7054 48.4729 66.0976 47.1581 63.2082C44.3541 61.9144 42.0015 60.2599 40.0349 58.3982C35.3838 53.9949 33.0163 48.5521 31.8245 44.3443C30.881 41.0133 33.5649 38.1309 36.7153 38.1309L45.1608 38.1309L45.1608 36.4577V36.4574C45.1608 34.6186 52.5145 33.1279 61.5858 33.1279C70.6572 33.1279 78.0109 34.6186 78.0109 36.4574ZM45.1608 41.6324L36.7153 41.6324C35.5715 41.6324 34.9667 42.5894 35.1934 43.3901C36.2812 47.2304 38.4006 52.0291 42.4422 55.8554C43.3772 56.7405 44.4218 57.5802 45.5903 58.3474C45.3068 56.9265 45.1608 55.47 45.1608 53.9969V51.7513L45.1608 41.6324ZM77.5814 58.3476C78.75 57.5804 79.7947 56.7406 80.7297 55.8554C84.7713 52.0291 86.8907 47.2304 87.9784 43.3901C88.2052 42.5894 87.6004 41.6324 86.4566 41.6324L78.0109 41.6324L78.0109 51.7513V53.9969C78.0109 55.4701 77.8648 56.9266 77.5814 58.3476Z" fill="#FFBE16"/>
<g opacity="0.5">
<path d="M55.5551 85.8756C55.03 86.459 54.3232 86.8271 53.6097 87.1541C51.5367 88.1043 50.2527 89.4222 50.2527 90.8788C50.2527 92.8225 52.5388 94.5191 55.9349 95.4247C55.6756 96.1293 55.5335 96.8947 55.5335 97.6949C55.5335 98.5107 55.6813 99.2905 55.9504 100.007C51.2099 99.0132 47.9121 96.8054 47.9121 94.2412C47.9121 92.9274 48.7777 91.7073 50.2595 90.696C50.3619 89.3121 51.6237 88.0644 53.6097 87.1541C54.3232 86.8271 55.03 86.459 55.5551 85.8756Z" fill="white"/>
<path d="M67.2375 95.4247C70.6337 94.5191 72.9198 92.8225 72.9198 90.8788C72.9198 90.8176 72.9175 90.7567 72.913 90.696C74.3948 91.7073 75.2604 92.9274 75.2604 94.2412C75.2604 96.8054 71.9626 99.0132 67.2221 100.007C67.4912 99.2905 67.639 98.5107 67.639 97.6949C67.639 96.8947 67.4969 96.1293 67.2375 95.4247Z" fill="white"/>
</g>
<g style="mix-blend-mode:screen" opacity="0.35">
<path fill-rule="evenodd" clip-rule="evenodd" d="M74.6349 34.4353C71.9724 33.7304 67.9516 33.2476 63.3652 33.1475V52.8804C63.3652 54.1462 63.6365 55.3974 64.1606 56.5496C66.0501 60.7031 71.95 60.7031 73.8395 56.5496C74.3637 55.3974 74.6349 54.1462 74.6349 52.8804L74.6349 34.4353Z" fill="white"/>
</g>
<path d="M36.5477 61.3231C25.7677 82.4786 32.3925 81.0097 44.4477 72.5411C50.3358 68.4049 57.5193 62.5988 64.603 56.9433C70.6165 52.1424 76.7018 47.2329 82.0055 43.3285C101.433 29.027 96.9038 41.7984 91.4948 56.9433C88.3031 65.88 84.805 75.6431 85.7415 81.158" stroke="#C0AAFF" stroke-width="1.37382" stroke-linecap="round"/>
<path d="M44.4473 72.5412C50.3353 68.405 57.5188 62.5988 64.6026 56.9434C70.616 52.1425 76.7013 47.233 82.005 43.3286" stroke="#C0AAFF" stroke-width="1.37382" stroke-linecap="round"/>
<g style="mix-blend-mode:multiply">
<path d="M64.6035 56.9433C70.6169 52.1424 76.7023 47.2329 82.006 43.3285C101.433 29.027 96.9043 41.7984 91.4953 56.9433C88.3036 65.88 84.8055 75.6431 85.742 81.158" stroke="#C0AAFF" stroke-width="1.37382" stroke-linecap="round"/>
</g>
<g opacity="0.5" filter="url(#filter5_f_145_6874)">
<rect x="50.2363" y="46.7432" width="6.76192" height="6.76192" fill="white"/>
</g>
<rect x="50.2363" y="46.7432" width="6.76192" height="6.76192" fill="white"/>
<path d="M68.9063 75.6194C68.0656 76.0826 67.7059 77.0881 68.0122 77.9977L69.5518 82.5695C69.9481 83.7465 71.2878 84.3081 72.4049 83.7656L77.1901 81.4419C78.2337 80.9351 78.6535 79.667 78.1183 78.6376L75.64 73.8703C75.3128 73.2408 74.5595 72.9627 73.9058 73.2385C72.2106 73.9536 70.5195 74.7307 68.9063 75.6194Z" fill="#D9D7EB"/>
<path d="M91.6984 68.471C90.9944 68.559 90.4811 69.1765 90.5124 69.8853L90.7498 75.253C90.8011 76.4121 91.7986 77.3004 92.9558 77.2174L98.2618 76.8373C99.5005 76.7485 100.38 75.5923 100.135 74.3749L99.182 69.6458C98.9925 68.7049 98.1782 68.0139 97.2186 68.0332C95.3771 68.0701 93.524 68.2426 91.6984 68.471Z" fill="#D9D7EB"/>
<g style="mix-blend-mode:multiply">
<path d="M68.9063 75.6194C68.0656 76.0826 67.7059 77.0881 68.0122 77.9977L69.5518 82.5695C69.9481 83.7465 71.2878 84.3081 72.4049 83.7656L77.1901 81.4419C78.2337 80.9351 78.6535 79.667 78.1183 78.6376L75.64 73.8703C75.3128 73.2408 74.5595 72.9627 73.9058 73.2385C72.2106 73.9536 70.5195 74.7307 68.9063 75.6194Z" fill="#C0AAFF"/>
<path d="M91.6984 68.471C90.9944 68.559 90.4811 69.1765 90.5124 69.8853L90.7498 75.253C90.8011 76.4121 91.7986 77.3004 92.9558 77.2174L98.2618 76.8373C99.5005 76.7485 100.38 75.5923 100.135 74.3749L99.182 69.6458C98.9925 68.7049 98.1782 68.0139 97.2186 68.0332C95.3771 68.0701 93.524 68.2426 91.6984 68.471Z" fill="#C0AAFF"/>
</g>
<path d="M64.3022 84.5446C63.4449 89.6255 62.8648 97.0307 63.6136 103.443C64.0348 107.05 66.874 109.318 70.1184 110.01C76.8299 111.442 79.1495 108.27 80.6406 103.431C80.7154 103.188 80.7886 102.944 80.8622 102.699C81.8926 99.2623 82.9758 95.6493 89.0123 94.0318C95.0488 92.4144 97.7934 95.0017 100.404 97.4626C100.59 97.6383 100.776 97.8132 100.962 97.986C104.673 101.431 108.268 103.019 113.364 98.4225C115.828 96.2006 117.153 92.8172 115.714 89.4831C113.156 83.5552 108.951 77.4322 105.668 73.4606C103.871 71.2865 101.224 70.0543 98.4034 70.0957C93.2087 70.172 88.1041 70.8819 83.164 72.2056C78.2239 73.5293 73.4482 75.4668 68.9113 77.9981C66.4481 79.3724 64.7715 81.7633 64.3022 84.5446Z" fill="#D9D7EB"/>
<g style="mix-blend-mode:multiply" opacity="0.5">
<path fill-rule="evenodd" clip-rule="evenodd" d="M110.066 100.665C109.483 99.9378 108.931 99.2394 108.403 98.5716L108.403 98.5715C106.921 96.697 105.63 95.0631 104.373 93.7005C100.303 89.2893 96.5906 87.7215 87.9426 90.0387C79.2946 92.3559 76.8637 95.5698 75.5445 101.425C75.1371 103.234 74.8357 105.294 74.4899 107.659L74.4899 107.659C74.3667 108.501 74.2379 109.382 74.0966 110.303C77.8535 109.895 79.4927 107.157 80.6408 103.431C80.7156 103.188 80.7888 102.944 80.8624 102.699L80.8624 102.699C81.8928 99.2622 82.976 95.6492 89.0125 94.0318C95.049 92.4143 97.7936 95.0016 100.404 97.4625L100.405 97.4628C100.591 97.6384 100.776 97.8133 100.962 97.9859C103.819 100.639 106.608 102.19 110.066 100.665Z" fill="#C0AAFF"/>
</g>
<g style="mix-blend-mode:multiply">
<circle cx="100.961" cy="81.0195" r="4.29571" transform="rotate(-15 100.961 81.0195)" fill="#C0AAFF"/>
</g>
<g style="mix-blend-mode:multiply">
<circle cx="100.962" cy="81.0195" r="2.70445" transform="rotate(-15 100.962 81.0195)" fill="#C0AAFF"/>
</g>
<g style="mix-blend-mode:multiply">
<path fill-rule="evenodd" clip-rule="evenodd" d="M69.9599 84.3484C69.5934 84.4466 69.376 84.8232 69.4742 85.1897L70.1408 87.6778L67.6527 88.3445C67.2863 88.4427 67.0688 88.8194 67.167 89.1858L67.6114 90.8446C67.7096 91.211 68.0863 91.4285 68.4527 91.3303L70.9409 90.6636L71.6076 93.1518C71.7058 93.5182 72.0824 93.7357 72.4489 93.6375L74.1076 93.193C74.4741 93.0948 74.6915 92.7182 74.5934 92.3517L73.9267 89.8636L76.4148 89.1969C76.7812 89.0987 76.9987 88.722 76.9005 88.3556L76.456 86.6968C76.3579 86.3304 75.9812 86.1129 75.6148 86.2111L73.1266 86.8778L72.4599 84.3897C72.3617 84.0232 71.9851 83.8058 71.6186 83.9039L69.9599 84.3484Z" fill="#C0AAFF"/>
</g>
<g style="mix-blend-mode:multiply">
<path fill-rule="evenodd" clip-rule="evenodd" d="M79.9706 80.279C80.5518 80.1233 80.756 79.0013 80.4269 77.773C80.0978 76.5447 79.3599 75.6751 78.7788 75.8309C78.1977 75.9866 77.9934 77.1085 78.3225 78.3369C78.6516 79.5652 79.3895 80.4347 79.9706 80.279ZM89.9666 77.6007C90.5477 77.445 90.752 76.323 90.4229 75.0947C90.0938 73.8664 89.3559 72.9969 88.7747 73.1526C88.1936 73.3083 87.9893 74.4303 88.3185 75.6586C88.6476 76.8869 89.3855 77.7564 89.9666 77.6007Z" fill="#272727"/>
</g>
<path d="M92.0437 80.3154C92.9724 83.7812 90.9156 87.3436 87.4499 88.2722C83.9841 89.2009 80.4217 87.1441 79.493 83.6783C79.493 83.6783 78.8976 83.2986 85.6336 81.4937C92.3696 79.6888 92.0437 80.3154 92.0437 80.3154Z" fill="#272727"/>
<path fill-rule="evenodd" clip-rule="evenodd" d="M92.2275 82.7124C91.9408 85.2944 90.1106 87.5595 87.45 88.2724C86.9523 88.4057 86.4527 88.4775 85.9591 88.4924C86.1672 86.0252 88.2362 83.7136 91.2049 82.9182C91.5468 82.8266 91.8884 82.7584 92.2275 82.7124Z" fill="#D9D7EB"/>
<path fill-rule="evenodd" clip-rule="evenodd" d="M92.2275 82.7124C91.9408 85.2944 90.1106 87.5595 87.45 88.2724C86.9523 88.4057 86.4527 88.4775 85.9591 88.4924C86.1672 86.0252 88.2362 83.7136 91.2049 82.9182C91.5468 82.8266 91.8884 82.7584 92.2275 82.7124Z" fill="#C0AAFF"/>
<circle cx="78.2315" cy="77.998" r="0.687351" transform="rotate(-15 78.2315 77.998)" fill="white"/>
<circle cx="88.376" cy="75.2797" r="0.687351" transform="rotate(-15 88.376 75.2797)" fill="white"/>
<defs>
<filter id="filter0_f_145_6874" x="74.7715" y="16.7947" width="21.1894" height="21.1894" filterUnits="userSpaceOnUse" color-interpolation-filters="sRGB">
<feFlood flood-opacity="0" result="BackgroundImageFix"/>
<feBlend mode="normal" in="SourceGraphic" in2="BackgroundImageFix" result="shape"/>
<feGaussianBlur stdDeviation="3.37157" result="effect1_foregroundBlur_145_6874"/>
</filter>
<filter id="filter1_f_145_6874" x="72.1502" y="17.2542" width="8.10098" height="8.10049" filterUnits="userSpaceOnUse" color-interpolation-filters="sRGB">
<feFlood flood-opacity="0" result="BackgroundImageFix"/>
<feBlend mode="normal" in="SourceGraphic" in2="BackgroundImageFix" result="shape"/>
<feGaussianBlur stdDeviation="1.00937" result="effect1_foregroundBlur_145_6874"/>
</filter>
<filter id="filter2_f_145_6874" x="90.4603" y="46.7894" width="19.4426" height="19.4423" filterUnits="userSpaceOnUse" color-interpolation-filters="sRGB">
<feFlood flood-opacity="0" result="BackgroundImageFix"/>
<feBlend mode="normal" in="SourceGraphic" in2="BackgroundImageFix" result="shape"/>
<feGaussianBlur stdDeviation="3.2835" result="effect1_foregroundBlur_145_6874"/>
</filter>
<filter id="filter3_f_145_6874" x="32.6263" y="63.9649" width="22.2299" height="22.2296" filterUnits="userSpaceOnUse" color-interpolation-filters="sRGB">
<feFlood flood-opacity="0" result="BackgroundImageFix"/>
<feBlend mode="normal" in="SourceGraphic" in2="BackgroundImageFix" result="shape"/>
<feGaussianBlur stdDeviation="3.12143" result="effect1_foregroundBlur_145_6874"/>
</filter>
<filter id="filter4_f_145_6874" x="17.5396" y="54.6077" width="18.1767" height="18.1769" filterUnits="userSpaceOnUse" color-interpolation-filters="sRGB">
<feFlood flood-opacity="0" result="BackgroundImageFix"/>
<feBlend mode="normal" in="SourceGraphic" in2="BackgroundImageFix" result="shape"/>
<feGaussianBlur stdDeviation="3.48557" result="effect1_foregroundBlur_145_6874"/>
</filter>
<filter id="filter5_f_145_6874" x="47.5935" y="44.1003" width="12.0474" height="12.0477" filterUnits="userSpaceOnUse" color-interpolation-filters="sRGB">
<feFlood flood-opacity="0" result="BackgroundImageFix"/>
<feBlend mode="normal" in="SourceGraphic" in2="BackgroundImageFix" result="shape"/>
<feGaussianBlur stdDeviation="1.32143" result="effect1_foregroundBlur_145_6874"/>
</filter>
<linearGradient id="paint0_linear_145_6874" x1="35.4235" y1="28.1261" x2="19.0763" y2="65.818" gradientUnits="userSpaceOnUse">
<stop offset="0.432292" stop-color="#B9A9E7" stop-opacity="0"/>
<stop offset="1" stop-color="#B9A9E7" stop-opacity="0.5"/>
</linearGradient>
</defs>
</svg>
