<svg width="684" height="513" viewBox="0 0 684 513" fill="none" xmlns="http://www.w3.org/2000/svg">
<g clip-path="url(#clip0_116_395)">
<path fill-rule="evenodd" clip-rule="evenodd" d="M342.002 300.272C388.5 300.272 426.195 262.603 426.195 216.136C426.195 169.669 388.5 132 342.002 132C295.503 132 257.809 169.669 257.809 216.136C257.809 262.603 295.503 300.272 342.002 300.272ZM363.535 262.913C384.122 253.197 390.577 235.25 392.03 228.256C384.502 235.962 376.174 243.769 370.571 238.363C370.571 238.363 370.265 209.515 370.265 197.685C370.265 181.778 385.362 169.921 385.362 169.921C377.058 171.396 367.092 174.355 356.509 184.732C355.556 185.677 354.649 186.672 353.797 187.714C349.263 184.244 343.385 185.286 343.385 185.286C346.559 187.028 349.732 192.105 349.732 196.31V237.623C349.732 237.623 342.808 243.71 337.472 243.71C336.271 243.718 335.081 243.439 334.008 242.897C332.935 242.355 332.009 241.561 331.303 240.589C330.881 240.04 330.532 239.435 330.261 238.797V187.749C328.684 189.05 323.352 190.122 323.352 181.278C323.352 175.783 327.312 169.236 334.368 165.22C324.681 166.695 315.61 170.877 308.201 177.282C302.571 182.146 298.069 188.175 295.007 194.951C291.946 201.728 290.396 209.093 290.47 216.527C290.47 216.527 295.627 200.423 302.087 198.936C303.028 198.688 304.013 198.665 304.966 198.866C305.919 199.067 306.81 199.486 307.57 200.093C308.329 200.701 308.938 201.476 309.348 202.359C309.755 203.242 309.953 204.21 309.918 205.182V243.002C309.918 246.835 307.446 247.672 305.16 247.633C303.61 247.525 302.083 247.238 300.599 246.773C305.315 253.155 311.445 258.359 318.509 261.98C325.572 265.6 333.376 267.54 341.316 267.645L355.266 253.631L363.535 262.913Z" fill="white"/>
<path d="M270.507 327.394V341.721C270.507 349.969 264.888 355.39 254.775 355.39C244.661 355.39 239 349.969 239 341.721V327.394H246.905V341.101C246.905 345.825 249.54 348.885 254.771 348.885C260.002 348.885 262.598 345.825 262.598 341.101V327.394H270.507Z" fill="white"/>
<path d="M307.842 327.394V354.499H300.906L283.391 336.687V354.499H275.758V327.394H284.128L300.208 343.967V327.394H307.842Z" fill="white"/>
<path d="M336.491 354.499L329.323 345.942H321.341V354.499H313.475V327.394H332.5C339.436 327.394 344.822 330.453 344.822 336.648C344.822 341.179 341.955 344.044 337.693 345.283L345.675 354.499H336.491ZM331.919 340.211C334.748 340.211 336.801 339.436 336.801 336.803C336.801 334.17 334.748 333.396 331.919 333.396H321.302V340.211H331.919Z" fill="white"/>
<path d="M377.961 348.459V354.499H349.012V327.394H377.531V333.434H356.8V337.887H373.888V343.657H356.8V348.459H377.961Z" fill="white"/>
<path d="M405.438 349.31H390.559L388.001 354.499H379.709L393.736 327.394H402.377L416.404 354.499H407.996L405.438 349.31ZM402.687 343.696L397.998 334.093L393.271 343.696H402.687Z" fill="white"/>
<path d="M444.999 348.149V354.499H418.844V327.394H426.748V348.149H444.999Z" fill="white"/>
<path d="M299.045 377.427V381.411H279.941V363.521H298.762V367.506H285.079V370.445H296.355V374.251H285.079V377.419H299.045V377.427Z" fill="white"/>
<path d="M323.131 363.525V381.415H318.555L306.996 369.659V381.415H301.959V363.525H307.481L318.094 374.464V363.525H323.131Z" fill="white"/>
<path d="M347.989 378.039C346.071 380.416 342.541 382 337.759 382C330.42 382 325.867 378.527 325.867 372.467C325.867 366.407 330.42 362.933 337.759 362.933C342.184 362.933 345.381 364.494 347.245 366.228L343.436 369.04C341.901 367.661 340.289 367.045 337.887 367.045C333.539 367.045 331.16 368.962 331.16 372.463C331.16 375.99 333.613 377.907 337.961 377.907C340.158 377.907 341.898 377.473 343.153 376.323V374.712H337.221V371.057H347.985V378.039H347.989Z" fill="white"/>
<path d="M351.1 381.411V363.521H356.315V381.411H351.1Z" fill="white"/>
<path d="M381.196 363.525V381.415H376.62L365.061 369.659V381.415H360.023V363.525H365.545L376.158 374.464V363.525H381.196Z" fill="white"/>
<path d="M404.058 377.427V381.411H384.955V363.521H403.775V367.506H390.093V370.445H401.369V374.251H390.093V377.419H404.058V377.427Z" fill="white"/>
</g>
<defs>
<clipPath id="clip0_116_395">
<rect width="206" height="250" fill="white" transform="translate(239 132)"/>
</clipPath>
</defs>
</svg>
