<svg width="121" height="121" viewBox="0 0 121 121" fill="none" xmlns="http://www.w3.org/2000/svg">
<g opacity="0.5">
<rect x="17.7451" y="69.1912" width="14.5094" height="27.5624" fill="#9171FF"/>
<rect x="37.6113" y="55.0396" width="14.5094" height="41.7142" fill="#9171FF"/>
<rect x="57.4785" y="39.4797" width="14.5094" height="57.274" fill="#9171FF"/>
</g>
<ellipse cx="77.1729" cy="96.7061" rx="13.7686" ry="4.44976" fill="#FFEF60"/>
<path d="M90.9415 96.7061C90.9415 99.1636 84.7771 101.156 77.1729 101.156C69.5687 101.156 63.4043 99.1636 63.4043 96.7061C63.4043 94.2486 69.5687 92.2563 77.1729 92.2563C84.7771 92.2563 90.9415 94.2486 90.9415 96.7061Z" fill="#FFEF60"/>
<path d="M77.1729 104.502C84.7771 104.502 90.9415 102.51 90.9415 100.053V96.7061C90.9415 99.1636 84.7771 101.156 77.1729 101.156C69.5687 101.156 63.4043 99.1636 63.4043 96.7061V100.053C63.4043 102.51 69.5687 104.502 77.1729 104.502Z" fill="#FFEF60"/>
<g style="mix-blend-mode:multiply">
<path fill-rule="evenodd" clip-rule="evenodd" d="M77.1729 104.502C84.7771 104.502 90.9415 102.51 90.9415 100.052V96.7061C90.9415 99.1636 84.7771 101.156 77.1729 101.156V104.502Z" fill="#FFEF60"/>
<path d="M77.1729 104.502V101.156C74.1475 101.156 71.35 100.84 69.078 100.306V103.652C71.35 104.187 74.1475 104.502 77.1729 104.502Z" fill="#FFEF60"/>
<path d="M63.4043 96.7061V100.052C63.4043 101.532 65.6393 102.843 69.078 103.652V100.306C65.6393 99.4969 63.4043 98.1858 63.4043 96.7061Z" fill="#FFEF60"/>
</g>
<g style="mix-blend-mode:multiply">
<path d="M63.4043 96.7061V100.052C63.4043 101.532 65.6393 102.843 69.078 103.652V100.306C65.6393 99.4969 63.4043 98.1858 63.4043 96.7061Z" fill="#FFEF60"/>
</g>
<g style="mix-blend-mode:multiply">
<path fill-rule="evenodd" clip-rule="evenodd" d="M87.906 99.4934V102.84C89.805 102.077 90.9415 101.108 90.9415 100.052V96.7061C90.9415 97.7613 89.805 98.7307 87.906 99.4934Z" fill="#FFEF60"/>
</g>
<g style="mix-blend-mode:multiply">
<path fill-rule="evenodd" clip-rule="evenodd" d="M63.4043 100.052V96.7061C63.4043 97.7216 64.4571 98.6578 66.2291 99.4067V102.753C64.4571 102.004 63.4043 101.068 63.4043 100.052Z" fill="#FFEF60"/>
</g>
<g style="mix-blend-mode:multiply">
<path d="M77.1731 104.502V101.156C74.1477 101.156 71.3502 100.84 69.0781 100.306V103.652C71.3502 104.187 74.1477 104.502 77.1731 104.502Z" fill="#FFEF60"/>
</g>
<g style="mix-blend-mode:multiply" opacity="0.5">
<path fill-rule="evenodd" clip-rule="evenodd" d="M90.3135 95.3735C88.5612 93.567 83.3407 92.2563 77.1729 92.2563C74.6944 92.2563 72.3688 92.468 70.3598 92.8384C78.6632 95.5288 85.4873 95.8627 90.3135 95.3735ZM68.77 93.1809C65.5065 93.9945 63.4043 95.271 63.4043 96.7061C63.4043 99.1636 69.5687 101.156 77.1729 101.156C81.8256 101.156 85.9393 100.41 88.4317 99.2682C78.0911 98.8192 72.1898 95.6992 68.77 93.1809Z" fill="#FFEF60"/>
</g>
<ellipse cx="77.1729" cy="92.7508" rx="13.7686" ry="4.44976" fill="#FFEF60"/>
<path d="M90.9415 92.7508C90.9415 95.2083 84.7771 97.2006 77.1729 97.2006C69.5687 97.2006 63.4043 95.2083 63.4043 92.7508C63.4043 90.2933 69.5687 88.301 77.1729 88.301C84.7771 88.301 90.9415 90.2933 90.9415 92.7508Z" fill="#FFEF60"/>
<path d="M77.1729 100.547C84.7771 100.547 90.9415 98.5547 90.9415 96.0972V92.7508C90.9415 95.2083 84.7771 97.2006 77.1729 97.2006C69.5687 97.2006 63.4043 95.2083 63.4043 92.7508V96.0972C63.4043 98.5547 69.5687 100.547 77.1729 100.547Z" fill="#FFEF60"/>
<g style="mix-blend-mode:multiply">
<path fill-rule="evenodd" clip-rule="evenodd" d="M77.1729 100.547C84.7771 100.547 90.9415 98.5549 90.9415 96.0974V92.751C90.9415 95.2085 84.7771 97.2007 77.1729 97.2007V100.547Z" fill="#FFEF60"/>
<path d="M77.1729 100.547V97.2007C74.1475 97.2007 71.35 96.8854 69.078 96.3508V99.6972C71.35 100.232 74.1475 100.547 77.1729 100.547Z" fill="#FFEF60"/>
<path d="M63.4043 92.751V96.0974C63.4043 97.5771 65.6393 98.8882 69.078 99.6972V96.3508C65.6393 95.5418 63.4043 94.2308 63.4043 92.751Z" fill="#FFEF60"/>
</g>
<g style="mix-blend-mode:multiply">
<path d="M63.4043 92.751V96.0974C63.4043 97.5771 65.6393 98.8882 69.078 99.6972V96.3508C65.6393 95.5418 63.4043 94.2308 63.4043 92.751Z" fill="#FFEF60"/>
</g>
<g style="mix-blend-mode:multiply">
<path fill-rule="evenodd" clip-rule="evenodd" d="M87.906 95.5384V98.8848C89.805 98.122 90.9415 97.1526 90.9415 96.0974V92.751C90.9415 93.8062 89.805 94.7756 87.906 95.5384Z" fill="#FFEF60"/>
</g>
<g style="mix-blend-mode:multiply">
<path fill-rule="evenodd" clip-rule="evenodd" d="M63.4043 96.0974V92.751C63.4043 93.7666 64.4571 94.7027 66.2291 95.4516V98.798C64.4571 98.0491 63.4043 97.113 63.4043 96.0974Z" fill="#FFEF60"/>
</g>
<g style="mix-blend-mode:multiply">
<path d="M77.1731 100.547V97.2007C74.1477 97.2007 71.3502 96.8854 69.0781 96.3508V99.6972C71.3502 100.232 74.1477 100.547 77.1731 100.547Z" fill="#FFEF60"/>
</g>
<g style="mix-blend-mode:multiply" opacity="0.5">
<path fill-rule="evenodd" clip-rule="evenodd" d="M90.3136 91.4184C88.5616 89.6118 83.3409 88.301 77.1729 88.301C74.6942 88.301 72.3685 88.5127 70.3594 88.8832C78.6631 91.5737 85.4873 91.9076 90.3136 91.4184ZM68.7698 89.2256C65.5064 90.0393 63.4043 91.3157 63.4043 92.7508C63.4043 95.2083 69.5687 97.2006 77.1729 97.2006C81.8254 97.2006 85.9388 96.4548 88.4313 95.313C78.0907 94.864 72.1895 91.7439 68.7698 89.2256Z" fill="#FFEF60"/>
</g>
<ellipse cx="77.1729" cy="88.7957" rx="13.7686" ry="4.44976" fill="#FFEF60"/>
<path d="M90.9415 88.7957C90.9415 91.2532 84.7771 93.2455 77.1729 93.2455C69.5687 93.2455 63.4043 91.2532 63.4043 88.7957C63.4043 86.3382 69.5687 84.3459 77.1729 84.3459C84.7771 84.3459 90.9415 86.3382 90.9415 88.7957Z" fill="#FFEF60"/>
<path d="M77.1729 96.5919C84.7771 96.5919 90.9415 94.5996 90.9415 92.1421V88.7957C90.9415 91.2532 84.7771 93.2455 77.1729 93.2455C69.5687 93.2455 63.4043 91.2532 63.4043 88.7957V92.1421C63.4043 94.5996 69.5687 96.5919 77.1729 96.5919Z" fill="#FFEF60"/>
<g style="mix-blend-mode:multiply">
<path fill-rule="evenodd" clip-rule="evenodd" d="M77.1729 96.5918C84.7771 96.5918 90.9415 94.5996 90.9415 92.142V88.7957C90.9415 91.2532 84.7771 93.2454 77.1729 93.2454V96.5918Z" fill="#FFEF60"/>
<path d="M77.1729 96.5918V93.2454C74.1475 93.2454 71.35 92.9301 69.078 92.3955V95.7419C71.35 96.2765 74.1475 96.5918 77.1729 96.5918Z" fill="#FFEF60"/>
<path d="M63.4043 88.7957V92.142C63.4043 93.6218 65.6393 94.9329 69.078 95.7419V92.3955C65.6393 91.5865 63.4043 90.2754 63.4043 88.7957Z" fill="#FFEF60"/>
</g>
<g style="mix-blend-mode:multiply">
<path d="M63.4043 88.7957V92.142C63.4043 93.6218 65.6393 94.9329 69.078 95.7419V92.3955C65.6393 91.5865 63.4043 90.2754 63.4043 88.7957Z" fill="#FFEF60"/>
</g>
<g style="mix-blend-mode:multiply">
<path fill-rule="evenodd" clip-rule="evenodd" d="M87.906 91.583V94.9294C89.805 94.1667 90.9415 93.1972 90.9415 92.142V88.7957C90.9415 89.8509 89.805 90.8203 87.906 91.583Z" fill="#FFEF60"/>
</g>
<g style="mix-blend-mode:multiply">
<path fill-rule="evenodd" clip-rule="evenodd" d="M63.4043 92.142V88.7957C63.4043 89.8112 64.4571 90.7474 66.2291 91.4963V94.8427C64.4571 94.0938 63.4043 93.1576 63.4043 92.142Z" fill="#FFEF60"/>
</g>
<g style="mix-blend-mode:multiply">
<path d="M77.1731 96.592V93.2457C74.1477 93.2457 71.3502 92.9303 69.0781 92.3958V95.7421C71.3502 96.2767 74.1477 96.592 77.1731 96.592Z" fill="#FFEF60"/>
</g>
<g style="mix-blend-mode:multiply" opacity="0.5">
<path fill-rule="evenodd" clip-rule="evenodd" d="M90.3136 87.4632C88.5615 85.6567 83.3408 84.3459 77.1729 84.3459C74.6943 84.3459 72.3686 84.5576 70.3595 84.9281C78.6631 87.6186 85.4873 87.9524 90.3136 87.4632ZM68.7698 85.2705C65.5064 86.0842 63.4043 87.3606 63.4043 88.7957C63.4043 91.2532 69.5687 93.2455 77.1729 93.2455C81.8254 93.2455 85.939 92.4997 88.4314 91.3579C78.0908 90.9089 72.1896 87.7888 68.7698 85.2705Z" fill="#FFEF60"/>
</g>
<ellipse cx="77.1729" cy="84.8406" rx="13.7686" ry="4.44976" fill="#FFEF60"/>
<path d="M90.9415 84.8406C90.9415 87.2982 84.7771 89.2904 77.1729 89.2904C69.5687 89.2904 63.4043 87.2982 63.4043 84.8406C63.4043 82.3831 69.5687 80.3909 77.1729 80.3909C84.7771 80.3909 90.9415 82.3831 90.9415 84.8406Z" fill="#FFEF60"/>
<path d="M77.1729 92.6368C84.7771 92.6368 90.9415 90.6446 90.9415 88.187V84.8406C90.9415 87.2982 84.7771 89.2904 77.1729 89.2904C69.5687 89.2904 63.4043 87.2982 63.4043 84.8406V88.187C63.4043 90.6446 69.5687 92.6368 77.1729 92.6368Z" fill="#FFEF60"/>
<g style="mix-blend-mode:multiply">
<path fill-rule="evenodd" clip-rule="evenodd" d="M77.1729 92.6367C84.7771 92.6367 90.9415 90.6445 90.9415 88.187V84.8406C90.9415 87.2981 84.7771 89.2903 77.1729 89.2903V92.6367Z" fill="#FFEF60"/>
<path d="M77.1729 92.6367V89.2903C74.1475 89.2903 71.35 88.975 69.078 88.4404V91.7868C71.35 92.3214 74.1475 92.6367 77.1729 92.6367Z" fill="#FFEF60"/>
<path d="M63.4043 84.8406V88.187C63.4043 89.6667 65.6393 90.9778 69.078 91.7868V88.4404C65.6393 87.6314 63.4043 86.3204 63.4043 84.8406Z" fill="#FFEF60"/>
</g>
<g style="mix-blend-mode:multiply">
<path d="M63.4043 84.8406V88.187C63.4043 89.6667 65.6393 90.9778 69.078 91.7868V88.4404C65.6393 87.6314 63.4043 86.3204 63.4043 84.8406Z" fill="#FFEF60"/>
</g>
<g style="mix-blend-mode:multiply">
<path fill-rule="evenodd" clip-rule="evenodd" d="M87.906 87.628V90.9743C89.805 90.2116 90.9415 89.2422 90.9415 88.187V84.8406C90.9415 85.8958 89.805 86.8652 87.906 87.628Z" fill="#FFEF60"/>
</g>
<g style="mix-blend-mode:multiply">
<path fill-rule="evenodd" clip-rule="evenodd" d="M63.4043 88.187V84.8406C63.4043 85.8562 64.4571 86.7923 66.2291 87.5412V90.8876C64.4571 90.1387 63.4043 89.2026 63.4043 88.187Z" fill="#FFEF60"/>
</g>
<g style="mix-blend-mode:multiply">
<path d="M77.1731 92.6367V89.2903C74.1477 89.2903 71.3502 88.975 69.0781 88.4404V91.7868C71.3502 92.3214 74.1477 92.6367 77.1731 92.6367Z" fill="#FFEF60"/>
</g>
<g style="mix-blend-mode:multiply" opacity="0.5">
<path fill-rule="evenodd" clip-rule="evenodd" d="M90.3135 83.5081C88.5614 81.7016 83.3408 80.3909 77.1729 80.3909C74.6943 80.3909 72.3687 80.6025 70.3596 80.973C78.6632 83.6634 85.4873 83.9973 90.3135 83.5081ZM68.7699 81.3154C65.5064 82.1291 63.4043 83.4055 63.4043 84.8406C63.4043 87.2982 69.5687 89.2904 77.1729 89.2904C81.8255 89.2904 85.9391 88.5446 88.4315 87.4027C78.0909 86.9538 72.1897 83.8337 68.7699 81.3154Z" fill="#FFEF60"/>
</g>
<ellipse cx="77.1729" cy="80.8856" rx="13.7686" ry="4.44976" fill="#FFEF60"/>
<path d="M90.9415 80.8856C90.9415 83.3431 84.7771 85.3353 77.1729 85.3353C69.5687 85.3353 63.4043 83.3431 63.4043 80.8856C63.4043 78.428 69.5687 76.4358 77.1729 76.4358C84.7771 76.4358 90.9415 78.428 90.9415 80.8856Z" fill="#FFEF60"/>
<path d="M77.1729 88.6817C84.7771 88.6817 90.9415 86.6895 90.9415 84.2319V80.8856C90.9415 83.3431 84.7771 85.3353 77.1729 85.3353C69.5687 85.3353 63.4043 83.3431 63.4043 80.8856V84.2319C63.4043 86.6895 69.5687 88.6817 77.1729 88.6817Z" fill="#FFEF60"/>
<g style="mix-blend-mode:multiply">
<path fill-rule="evenodd" clip-rule="evenodd" d="M77.1729 88.6817C84.7771 88.6817 90.9415 86.6894 90.9415 84.2319V80.8855C90.9415 83.343 84.7771 85.3353 77.1729 85.3353V88.6817Z" fill="#FFEF60"/>
<path d="M77.1729 88.6817V85.3353C74.1475 85.3353 71.35 85.0199 69.078 84.4854V87.8318C71.35 88.3663 74.1475 88.6817 77.1729 88.6817Z" fill="#FFEF60"/>
<path d="M63.4043 80.8855V84.2319C63.4043 85.7117 65.6393 87.0227 69.078 87.8318V84.4854C65.6393 83.6764 63.4043 82.3653 63.4043 80.8855Z" fill="#FFEF60"/>
</g>
<g style="mix-blend-mode:multiply">
<path d="M63.4043 80.8855V84.2319C63.4043 85.7117 65.6393 87.0227 69.078 87.8318V84.4854C65.6393 83.6764 63.4043 82.3653 63.4043 80.8855Z" fill="#FFEF60"/>
</g>
<g style="mix-blend-mode:multiply">
<path fill-rule="evenodd" clip-rule="evenodd" d="M87.906 83.6729V87.0193C89.805 86.2565 90.9415 85.2871 90.9415 84.2319V80.8855C90.9415 81.9407 89.805 82.9101 87.906 83.6729Z" fill="#FFEF60"/>
</g>
<g style="mix-blend-mode:multiply">
<path fill-rule="evenodd" clip-rule="evenodd" d="M63.4043 84.2319V80.8855C63.4043 81.9011 64.4571 82.8372 66.2291 83.5861V86.9325C64.4571 86.1836 63.4043 85.2475 63.4043 84.2319Z" fill="#FFEF60"/>
</g>
<g style="mix-blend-mode:multiply">
<path d="M77.1731 88.6816V85.3353C74.1477 85.3353 71.3502 85.0199 69.0781 84.4854V87.8317C71.3502 88.3663 74.1477 88.6816 77.1731 88.6816Z" fill="#FFEF60"/>
</g>
<g style="mix-blend-mode:multiply" opacity="0.5">
<path fill-rule="evenodd" clip-rule="evenodd" d="M90.3135 79.553C88.5613 77.7465 83.3407 76.4358 77.1729 76.4358C74.6943 76.4358 72.3687 76.6474 70.3597 77.0179C78.6632 79.7083 85.4873 80.0422 90.3135 79.553ZM68.7699 77.3603C65.5065 78.174 63.4043 79.4504 63.4043 80.8856C63.4043 83.3431 69.5687 85.3353 77.1729 85.3353C81.8256 85.3353 85.9392 84.5895 88.4316 83.4476C78.091 82.9987 72.1898 79.8786 68.7699 77.3603Z" fill="#FFEF60"/>
</g>
<ellipse cx="76.6351" cy="72.2284" rx="13.7686" ry="4.44976" transform="rotate(-7.9406 76.6351 72.2284)" fill="#FFEF60"/>
<path d="M90.2717 70.3263C90.6112 72.7603 84.7811 75.585 77.2498 76.6355C69.7185 77.686 63.338 76.5645 62.9985 74.1305C62.659 71.6965 68.4891 68.8718 76.0204 67.8213C83.5517 66.7708 89.9322 67.8923 90.2717 70.3263Z" fill="#FFEF60"/>
<path d="M77.7121 79.9498C85.2434 78.8993 91.0735 76.0746 90.734 73.6406L90.2717 70.3263C90.6112 72.7603 84.7811 75.585 77.2498 76.6355C69.7185 77.686 63.338 76.5645 62.9985 74.1305L63.4608 77.4448C63.8003 79.8788 70.1808 81.0003 77.7121 79.9498Z" fill="#FFEF60"/>
<g style="mix-blend-mode:multiply">
<path fill-rule="evenodd" clip-rule="evenodd" d="M77.7117 79.9499C85.2429 78.8994 91.073 76.0747 90.7335 73.6408L90.2713 70.3264C90.6108 72.7604 84.7807 75.5851 77.2494 76.6356L77.7117 79.9499Z" fill="#FFEF60"/>
<path d="M77.7117 79.9499L77.2494 76.6356C74.253 77.0536 71.4387 77.1277 69.1146 76.9122L69.5769 80.2265C71.901 80.442 74.7153 80.3679 77.7117 79.9499Z" fill="#FFEF60"/>
<path d="M62.998 74.1306L63.4603 77.4449C63.6648 78.9105 66.0595 79.9003 69.5769 80.2265L69.1146 76.9122C65.5972 76.5859 63.2025 75.5962 62.998 74.1306Z" fill="#FFEF60"/>
</g>
<g style="mix-blend-mode:multiply">
<path d="M62.998 74.1306L63.4603 77.4449C63.6648 78.9105 66.0595 79.9003 69.5769 80.2265L69.1146 76.9122C65.5972 76.5859 63.2025 75.5962 62.998 74.1306Z" fill="#FFEF60"/>
</g>
<g style="mix-blend-mode:multiply">
<path fill-rule="evenodd" clip-rule="evenodd" d="M87.6501 73.5062L88.1124 76.8205C89.8878 75.8027 90.8794 74.6856 90.7337 73.6405L90.2714 70.3262C90.4171 71.3713 89.4255 72.4884 87.6501 73.5062Z" fill="#FFEF60"/>
</g>
<g style="mix-blend-mode:multiply">
<path fill-rule="evenodd" clip-rule="evenodd" d="M63.4603 77.4449L62.998 74.1306C63.1383 75.1365 64.3103 75.9182 66.1689 76.4151L66.6312 79.7294C64.7726 79.2325 63.6006 78.4508 63.4603 77.4449Z" fill="#FFEF60"/>
</g>
<g style="mix-blend-mode:multiply">
<path d="M77.7123 79.9499L77.25 76.6356C74.2536 77.0535 71.4393 77.1277 69.1152 76.9121L69.5775 80.2264C71.9016 80.442 74.7159 80.3678 77.7123 79.9499Z" fill="#FFEF60"/>
</g>
<g style="mix-blend-mode:multiply" opacity="0.5">
<path d="M90.2717 70.3263C90.6112 72.7603 84.7811 75.585 77.2498 76.6355C69.7185 77.686 63.338 76.5645 62.9985 74.1305C62.659 71.6965 68.4891 68.8718 76.0204 67.8213C83.5517 66.7708 89.9322 67.8923 90.2717 70.3263Z" fill="#FFEF60"/>
</g>
<g style="mix-blend-mode:multiply">
<path fill-rule="evenodd" clip-rule="evenodd" d="M63.1309 73.2521C73.1001 74.7661 81.41 74.4528 87.784 73.4289C89.4757 72.432 90.4143 71.3449 90.2722 70.3262C89.9327 67.8922 83.5522 66.7707 76.0209 67.8212C69.3822 68.7472 64.0654 71.0517 63.1309 73.2521Z" fill="#FFEF60"/>
</g>
<g style="mix-blend-mode:multiply">
<path fill-rule="evenodd" clip-rule="evenodd" d="M89.8622 71.6936C90.1885 71.2336 90.3344 70.7733 90.272 70.3262C89.9325 67.8922 83.552 66.7707 76.0207 67.8212C71.291 68.4809 67.2322 69.8403 64.9511 71.3633C75.0071 72.9563 83.4036 72.6922 89.8622 71.6936Z" fill="#FFEF60"/>
</g>
<g style="mix-blend-mode:multiply">
<path d="M90.2717 70.3263C90.6112 72.7603 84.7811 75.585 77.2498 76.6355C69.7185 77.686 63.338 76.5645 62.9985 74.1305C62.659 71.6965 68.4891 68.8718 76.0204 67.8213C83.5517 66.7708 89.9322 67.8923 90.2717 70.3263Z" fill="#FFEF60"/>
</g>
<ellipse cx="77.1" cy="57.4728" rx="13.7686" ry="4.44976" transform="rotate(8.03842 77.1 57.4728)" fill="#FFEF60"/>
<path d="M90.7333 59.3981C90.3896 61.8315 84.0072 62.9422 76.4777 61.8788C68.9482 60.8155 63.123 57.9808 63.4666 55.5474C63.8103 53.114 70.1927 52.0034 77.7222 53.0667C85.2517 54.1301 91.077 56.9647 90.7333 59.3981Z" fill="#FFEF60"/>
<path d="M76.0098 65.1923C83.5393 66.2557 89.9217 65.145 90.2653 62.7116L90.7333 59.3981C90.3896 61.8315 84.0072 62.9422 76.4777 61.8788C68.9482 60.8155 63.123 57.9808 63.4666 55.5474L62.9987 58.8609C62.655 61.2943 68.4803 64.129 76.0098 65.1923Z" fill="#FFEF60"/>
<g style="mix-blend-mode:multiply">
<path fill-rule="evenodd" clip-rule="evenodd" d="M76.0099 65.1923C83.5394 66.2556 89.9219 65.145 90.2655 62.7116L90.7335 59.3981C90.3898 61.8315 84.0074 62.9421 76.4779 61.8788L76.0099 65.1923Z" fill="#FFEF60"/>
<path d="M76.0099 65.1923L76.4779 61.8788C73.4822 61.4557 70.7563 60.7523 68.5813 59.9052L68.1134 63.2188C70.2883 64.0658 73.0143 64.7692 76.0099 65.1923Z" fill="#FFEF60"/>
<path d="M63.4668 55.5474L62.9988 58.8609C62.7919 60.3261 64.8217 61.9369 68.1134 63.2188L68.5813 59.9052C65.2896 58.6233 63.2599 57.0126 63.4668 55.5474Z" fill="#FFEF60"/>
</g>
<g style="mix-blend-mode:multiply">
<path d="M63.4668 55.5474L62.9988 58.8609C62.7919 60.3261 64.8217 61.9369 68.1134 63.2188L68.5813 59.9052C65.2896 58.6233 63.2599 57.0126 63.4668 55.5474Z" fill="#FFEF60"/>
</g>
<g style="mix-blend-mode:multiply">
<path fill-rule="evenodd" clip-rule="evenodd" d="M87.3375 61.7338L86.8696 65.0473C88.8566 64.5576 90.1174 63.7566 90.265 62.7118L90.7329 59.3983C90.5854 60.4431 89.3245 61.2441 87.3375 61.7338Z" fill="#FFEF60"/>
</g>
<g style="mix-blend-mode:multiply">
<path fill-rule="evenodd" clip-rule="evenodd" d="M62.9988 58.8609L63.4668 55.5474C63.3248 56.553 64.2363 57.6271 65.8862 58.6165L65.4183 61.93C63.7683 60.9406 62.8568 59.8665 62.9988 58.8609Z" fill="#FFEF60"/>
</g>
<g style="mix-blend-mode:multiply">
<path d="M76.0097 65.1923L76.4776 61.8788C73.4819 61.4557 70.756 60.7523 68.5811 59.9053L68.1131 63.2188C70.2881 64.0658 73.014 64.7692 76.0097 65.1923Z" fill="#FFEF60"/>
</g>
<g style="mix-blend-mode:multiply" opacity="0.5">
<path fill-rule="evenodd" clip-rule="evenodd" d="M90.2977 57.9908C88.8153 55.957 83.8293 53.9292 77.7222 53.0667C75.268 52.7201 72.9357 52.6045 70.8947 52.6904C78.7403 56.5154 85.4505 57.8002 90.2977 57.9908ZM69.2725 52.8071C65.9273 53.1564 63.6673 54.1264 63.4666 55.5474C63.123 57.9808 68.9482 60.8155 76.4777 61.8788C81.0847 62.5294 85.2623 62.3662 87.8899 61.584C77.7137 59.6935 72.3066 55.7789 69.2725 52.8071Z" fill="#FFEF60"/>
</g>
<g filter="url(#filter0_f_145_6875)">
<rect x="34.7637" y="59.6528" width="6.7002" height="6.7002" fill="white"/>
</g>
<rect x="34.7637" y="59.6528" width="6.7002" height="6.7002" fill="white"/>
<g filter="url(#filter1_f_145_6875)">
<rect x="102.348" y="76.5366" width="5.88377" height="5.88377" transform="rotate(-180 102.348 76.5366)" fill="#0AFFF0"/>
</g>
<rect x="102.348" y="76.5366" width="5.88377" height="5.88377" transform="rotate(-180 102.348 76.5366)" fill="#0AFFF0"/>
<g filter="url(#filter2_f_145_6875)">
<rect width="10.5671" height="10.5671" transform="matrix(-1 0 0 1 92.0586 28.6528)" fill="#12FFB4"/>
</g>
<rect width="10.5671" height="10.5671" transform="matrix(-1 0 0 1 92.0586 28.6528)" fill="#12FFB4"/>
<g filter="url(#filter3_f_145_6875)">
<rect width="7.07938" height="7.07938" transform="matrix(-1 0 0 1 106.543 44.0623)" fill="#F071F2"/>
</g>
<rect width="7.07938" height="7.07938" transform="matrix(-1 0 0 1 106.543 44.0623)" fill="#F071F2"/>
<path d="M30.3921 47.6531C22.032 47.6531 15.2549 40.8759 15.2549 32.5159C15.2549 24.1558 22.032 17.3787 30.3921 17.3787C34.3821 17.3787 38.0115 18.9224 40.7156 21.4451C43.6774 24.2082 45.5293 28.1458 45.5293 32.5159C45.5293 40.8759 38.7521 47.6531 30.3921 47.6531Z" fill="#9171FF" fill-opacity="0.5"/>
<path d="M30.3921 47.6531C22.032 47.6531 15.2549 40.8759 15.2549 32.5159C15.2549 24.1558 22.032 17.3787 30.3921 17.3787V32.5159L40.7156 21.4451C43.6774 24.2082 45.5293 28.1458 45.5293 32.5159C45.5293 40.8759 38.7521 47.6531 30.3921 47.6531Z" fill="#C0AAFF"/>
<defs>
<filter id="filter0_f_145_6875" x="28.7227" y="53.6118" width="18.7822" height="18.7822" filterUnits="userSpaceOnUse" color-interpolation-filters="sRGB">
<feFlood flood-opacity="0" result="BackgroundImageFix"/>
<feBlend mode="normal" in="SourceGraphic" in2="BackgroundImageFix" result="shape"/>
<feGaussianBlur stdDeviation="3.0205" result="effect1_foregroundBlur_145_6875"/>
</filter>
<filter id="filter1_f_145_6875" x="90.4229" y="64.6118" width="17.9658" height="17.9658" filterUnits="userSpaceOnUse" color-interpolation-filters="sRGB">
<feFlood flood-opacity="0" result="BackgroundImageFix"/>
<feBlend mode="normal" in="SourceGraphic" in2="BackgroundImageFix" result="shape"/>
<feGaussianBlur stdDeviation="3.0205" result="effect1_foregroundBlur_145_6875"/>
</filter>
<filter id="filter2_f_145_6875" x="75.4502" y="22.6118" width="22.6494" height="22.6491" filterUnits="userSpaceOnUse" color-interpolation-filters="sRGB">
<feFlood flood-opacity="0" result="BackgroundImageFix"/>
<feBlend mode="normal" in="SourceGraphic" in2="BackgroundImageFix" result="shape"/>
<feGaussianBlur stdDeviation="3.0205" result="effect1_foregroundBlur_145_6875"/>
</filter>
<filter id="filter3_f_145_6875" x="93.7731" y="38.3715" width="18.4607" height="18.4609" filterUnits="userSpaceOnUse" color-interpolation-filters="sRGB">
<feFlood flood-opacity="0" result="BackgroundImageFix"/>
<feBlend mode="normal" in="SourceGraphic" in2="BackgroundImageFix" result="shape"/>
<feGaussianBlur stdDeviation="2.84539" result="effect1_foregroundBlur_145_6875"/>
</filter>
</defs>
</svg>
