              <svg
                viewBox="0 0 67 17"
                fill="none"
                xmlns="http://www.w3.org/2000/svg"
              >
                <path
                  d="M12.4158 9.97174L9.06263 4.71748H6.64291V12.2474H9.0445V7.00194L12.4067 12.2562H14.8083V4.71748H12.4158V9.97174ZM31.4745 7.25674V6.5099H30.2057V5.49947H27.8676V6.5099H26.5988V7.25674H27.8676V12.2562H30.2057V7.25674H31.4745ZM16.1496 12.2562H18.4878V7.24796H16.1496V12.2562ZM16.1496 6.2551H18.4878V4.71748H16.1496V6.2551ZM57.0946 6.90529C55.2095 6.90529 53.6779 8.16174 53.6779 9.71693C53.6779 11.2721 55.2095 12.5286 57.0946 12.5286C58.9796 12.5286 60.5112 11.2721 60.5112 9.71693C60.5112 8.16174 58.9886 6.90529 57.0946 6.90529ZM58.0371 10.7713C58.0371 11.5709 57.5477 11.896 57.0855 11.896C56.6142 11.896 56.1248 11.5709 56.1248 10.7713C56.1248 10.4638 56.1248 9.69057 56.1248 9.69057C56.1248 9.69057 56.1248 8.95252 56.1248 8.64499C56.1248 7.85422 56.6142 7.52033 57.0764 7.52033C57.5386 7.52033 58.028 7.84543 58.028 8.64499C58.028 8.95252 58.028 9.50606 58.028 9.70814C58.0371 9.72572 58.0371 10.4726 58.0371 10.7713ZM50.6148 7.49398C50.2432 7.29189 49.8444 7.09859 49.2916 7.04587C47.606 6.90529 46.3191 8.34625 46.3191 9.673C46.3191 11.4127 47.7057 12.0629 47.9141 12.1595C48.7026 12.511 49.7085 12.511 50.6057 11.975C50.6057 12.019 50.6057 12.265 50.6057 12.265H52.9167V4.71748H50.6148C50.6148 4.71748 50.6148 6.33417 50.6148 7.49398ZM50.6329 9.72572C50.6329 9.72572 50.6329 10.2968 50.6329 10.6131C50.6329 11.3863 50.0801 11.5884 49.7176 11.5884C49.346 11.5884 48.8022 11.3863 48.8022 10.6131C48.8022 10.3495 48.8022 9.72572 48.8022 9.72572C48.8022 9.72572 48.8022 9.0931 48.8022 8.8295C48.8022 8.0563 49.346 7.85422 49.7176 7.85422C50.0801 7.85422 50.6329 8.04752 50.6329 8.8295C50.6329 9.0931 50.6329 9.72572 50.6329 9.72572ZM23.9616 7.01072C23.1913 7.0283 22.5478 7.35339 22.0947 7.76635C22.0947 7.64334 22.0947 7.23917 22.0947 7.23917H19.7747V12.2474H22.0947C22.0947 12.2474 22.0947 9.17217 22.0947 8.9613C22.0947 8.52198 22.5659 8.03873 23.2003 8.03873C23.8347 8.03873 24.2697 8.52198 24.2697 8.9613C24.2697 9.27761 24.2697 12.2474 24.2697 12.2474H26.5897C26.5897 12.2474 26.5897 9.87509 26.5897 9.52363C26.6079 7.54669 24.8316 6.99315 23.9616 7.01072ZM42.9478 7.01072C42.1775 7.0283 41.534 7.35339 41.0809 7.76635C41.0809 7.64334 41.0809 7.23917 41.0809 7.23917H38.7609V12.2474H41.0809C41.0809 12.2474 41.0809 9.17217 41.0809 8.9613C41.0809 8.52198 41.5521 8.03873 42.1865 8.03873C42.8209 8.03873 43.2559 8.52198 43.2559 8.9613C43.2559 9.27761 43.2559 12.2474 43.2559 12.2474H45.576C45.576 12.2474 45.576 9.87509 45.576 9.52363C45.5941 7.54669 43.8178 6.99315 42.9478 7.01072ZM38.054 9.76965C38.054 8.21446 36.5043 6.93165 34.6102 6.93165C32.707 6.93165 31.1664 8.1881 31.1664 9.74329C31.1664 11.2985 32.707 12.5549 34.6102 12.5549C36.1871 12.5549 37.5193 11.6851 37.9271 10.4989H35.598C35.598 10.4989 35.598 10.5253 35.598 10.8064C35.598 11.7202 34.9727 11.9223 34.6283 11.9223C34.2839 11.9223 33.6495 11.7202 33.6495 10.8064C33.6495 10.5341 33.6495 9.76965 33.6495 9.76965H38.054ZM33.8127 8.01237C33.9939 7.70485 34.3292 7.55548 34.6374 7.55548C34.9455 7.55548 35.2808 7.70485 35.4621 8.01237C35.6071 8.26718 35.6161 8.55713 35.6161 8.99645H33.6677C33.6495 8.54834 33.6586 8.25839 33.8127 8.01237ZM61.4446 5.64884C61.4446 5.40282 61.2543 5.27981 60.8827 5.27981H60.3571V6.56262H60.6743V6.03544H60.8284L61.0821 6.56262H61.4446L61.1455 5.9915C61.3359 5.94757 61.4446 5.82456 61.4446 5.64884ZM60.8374 5.85092H60.6833V5.48189H60.8284C61.0187 5.48189 61.1184 5.5434 61.1184 5.67519C61.1093 5.7982 61.0187 5.85092 60.8374 5.85092ZM60.8465 4.77898C60.1849 4.77898 59.6502 5.29738 59.6502 5.93879C59.6502 6.58019 60.1849 7.09859 60.8465 7.09859C61.508 7.09859 62.0427 6.58019 62.0427 5.93879C62.0427 5.29738 61.508 4.77898 60.8465 4.77898ZM60.8465 6.87893C60.3118 6.87893 59.8768 6.45718 59.8768 5.93879C59.8768 5.42039 60.3118 4.99864 60.8465 4.99864C61.3812 4.99864 61.8162 5.42039 61.8162 5.93879C61.8162 6.45718 61.3812 6.87893 60.8465 6.87893ZM58.2455 0.500016H8.7545C3.5163 0.491229 0 4.13758 0 8.5132C0 12.8888 3.50724 16.5 8.76356 16.5H58.2364C63.4928 16.5 67 12.8888 67 8.5132C67 4.13758 63.4746 0.491229 58.2455 0.500016ZM58.2183 14.5407H8.78168C4.60381 14.5582 2.06628 11.8344 2.06628 8.50441C2.06628 5.17437 4.62194 2.47695 8.78168 2.46817H58.2183C62.3781 2.47695 64.9337 5.17437 64.9337 8.50441C64.9247 11.8344 62.3962 14.5582 58.2183 14.5407Z"
                  fill="currentColor"
                ></path>
              </svg>