              <svg
                width="40"
                height="40"
                viewBox="0 0 40 40"
                xmlns="http://www.w3.org/2000/svg"
              >
                <path
                  d="M39.2812 19.8271C39.2812 24.9326 37.2531 29.8289 33.6431 33.439C30.033 37.049 25.1367 39.0771 20.0312 39.0771C14.9258 39.0771 10.0295 37.049 6.41944 33.439C2.80937 29.8289 0.78125 24.9326 0.78125 19.8271C0.78125 14.7217 2.80937 9.82542 6.41944 6.21534C10.0295 2.60527 14.9258 0.577148 20.0312 0.577148C25.1367 0.577148 30.033 2.60527 33.6431 6.21534C37.2531 9.82542 39.2812 14.7217 39.2812 19.8271ZM17.0738 10.2459V27.2331L20.894 28.4529V14.2061C20.894 13.5376 21.1915 13.0896 21.6693 13.2436C22.2905 13.4186 22.413 14.0329 22.413 14.6996V20.3924C24.7965 21.5491 26.6707 20.3924 26.6707 17.3351C26.6707 14.2009 25.5788 12.8114 22.3377 11.6914C20.6134 11.1052 18.8556 10.6225 17.0738 10.2459ZM21.6203 25.9556V28.1834L29.9818 25.1751C29.9818 25.1751 31.1052 24.7586 31.5638 24.1794C32.0223 23.6019 31.8175 22.7549 30.0167 22.1791C28.3183 21.5766 26.5069 21.3602 24.7142 21.5456C23.7464 21.6473 22.7921 21.8509 21.867 22.1529L21.6307 22.2334V24.5434L25.724 23.0909C26.4606 22.8364 27.2542 22.7958 28.013 22.9736C28.5782 23.1591 28.4715 23.5196 27.7733 23.7646L21.6203 25.9556ZM10.0597 25.7351C11.9568 26.3691 13.9797 26.5318 15.9538 26.2094C16.0763 26.1919 16.211 26.1726 16.33 26.1481V24.1496L14.44 24.8409C13.705 25.0929 12.9105 25.1349 12.1528 24.9581C11.5823 24.7726 11.6908 24.4121 12.3872 24.1636L16.337 22.7461V20.5114L10.8542 22.4714C10.1088 22.7216 9.40175 23.0664 8.74725 23.5004C7.90025 24.1286 8.20125 25.2189 10.0632 25.7439L10.0597 25.7351ZM25.5543 29.4171H25.7625V28.0189H26.277V27.8386H25.0345V28.0189H25.5543V29.4171ZM27.3253 29.4171L27.7575 28.1396V29.4189H27.9622V27.8316H27.6893L27.2308 29.1774L26.7757 27.8299H26.4783V29.4084H26.6847V28.1396L27.1152 29.4189L27.3253 29.4171Z"
                  fill="currentColor"
                ></path>
              </svg>